<svg data-name="Layer 1" xmlns="http://www.w3.org/2000/svg" viewBox="0 0 648 284.3354"><title>strips</title><path fill="#799900" fill-rule="evenodd" d="M648 284.335h-42.13L622.678 0H648v284.335z"/><path fill="#f38b00" fill-rule="evenodd" d="M605.87 284.335h-11.386L611.292 0h11.664L605.87 284.335z"/><path fill="#ef4046" fill-rule="evenodd" d="M594.484 284.335h-11.386L599.906 0h11.664l-17.086 284.335z"/><path fill="#5b87da" fill-rule="evenodd" d="M583.098 284.335h-11.385L588.52 0h11.664l-17.086 284.335z"/><path fill="#5b87da" fill-rule="evenodd" d="M571.713 284.335h-11.387L577.134 0h11.664l-17.085 284.335z"/><path fill="#fbd0d8" fill-rule="evenodd" d="M560.326 284.335H548.94L565.748 0h11.664l-17.086 284.335z"/><path fill="#799900" fill-rule="evenodd" d="M548.94 284.335h-11.386L554.362 0h11.664L548.94 284.335z"/><path fill="#799900" fill-rule="evenodd" d="M537.554 284.335h-11.385L542.976 0h11.664l-17.086 284.335z"/><path fill="#799900" fill-rule="evenodd" d="M526.169 284.335h-11.387L531.59 0h11.664l-17.085 284.335z"/><path fill="#ffce00" fill-rule="evenodd" d="M514.782 284.335h-11.386L520.204 0h11.664l-17.086 284.335z"/><path fill="#5b87da" fill-rule="evenodd" d="M503.396 284.335H492.01L508.818 0h11.664l-17.086 284.335z"/><path fill="#7b2981" fill-rule="evenodd" d="M492.01 284.335h-11.386L497.432 0h11.664L492.01 284.335z"/><path fill="#799900" fill-rule="evenodd" d="M480.624 284.335h-11.386L486.047 0h11.663l-17.086 284.335z"/><path fill="#7b2981" fill-rule="evenodd" d="M469.238 284.335h-11.386L474.661 0h11.663l-17.086 284.335z"/><path fill="#5b87da" fill-rule="evenodd" d="M457.852 284.335h-11.385L463.275 0h11.663l-17.086 284.335z"/><path fill="#ffce00" fill-rule="evenodd" d="M446.467 284.335H435.08L451.889 0h11.663l-17.085 284.335z"/><path fill="#ffce00" fill-rule="evenodd" d="M435.08 284.335h-11.385L440.502 0h11.664L435.08 284.335z"/><path fill="#799900" fill-rule="evenodd" d="M423.695 284.335h-11.386L429.116 0h11.664l-17.085 284.335z"/><path fill="#d9272e" fill-rule="evenodd" d="M412.309 284.335h-11.386L417.73 0h11.664l-17.085 284.335z"/><path fill="#f38b00" fill-rule="evenodd" d="M400.923 284.335h-11.386L406.344 0h11.665l-17.086 284.335z"/><path fill="#f38b00" fill-rule="evenodd" d="M389.537 284.335h-11.386L394.959 0h11.664l-17.086 284.335z"/><path fill="#ffce00" fill-rule="evenodd" d="M378.151 284.335h-11.387L383.572 0h11.664l-17.085 284.335z"/><path fill="#f38b00" fill-rule="evenodd" d="M366.764 284.335h-11.386L372.187 0h11.663l-17.086 284.335z"/><path fill="#7b2981" fill-rule="evenodd" d="M355.378 284.335h-11.385L360.801 0h11.663l-17.086 284.335z"/><path fill="#5b87da" fill-rule="evenodd" d="M343.993 284.335h-11.387L349.415 0h11.663l-17.085 284.335z"/><path fill="#ffce00" fill-rule="evenodd" d="M332.606 284.335H321.22L338.028 0h11.664l-17.086 284.335z"/><path fill="#fada6b" fill-rule="evenodd" d="M321.22 284.335h-11.385L326.642 0h11.664L321.22 284.335z"/><path fill="#d9272e" fill-rule="evenodd" d="M309.835 284.335H298.45L315.257 0h11.664l-17.086 284.335z"/><path fill="#d9272e" fill-rule="evenodd" d="M298.45 284.335h-11.387L303.871 0h11.664L298.45 284.335z"/><path fill="#ffce00" fill-rule="evenodd" d="M287.063 284.335h-11.387L292.485 0h11.664l-17.086 284.335z"/><path fill="#ffce00" fill-rule="evenodd" d="M275.676 284.335h-11.385L281.097 0h11.665l-17.086 284.335z"/><path fill="#fada6b" fill-rule="evenodd" d="M264.291 284.335h-11.386L269.713 0h11.664l-17.086 284.335z"/><path fill="#f38b00" fill-rule="evenodd" d="M252.905 284.335h-11.387L258.327 0h11.665l-17.087 284.335z"/><path fill="#f38b00" fill-rule="evenodd" d="M241.518 284.335h-11.384L246.941 0h11.662l-17.085 284.335z"/><path fill="#ffce00" fill-rule="evenodd" d="M230.134 284.335h-11.386L235.554 0h11.664l-17.084 284.335z"/><path fill="#ffce00" fill-rule="evenodd" d="M218.748 284.335H207.36L224.17 0h11.663l-17.085 284.335z"/><path fill="#fada6b" fill-rule="evenodd" d="M207.36 284.335h-11.386L212.784 0h11.663L207.36 284.335z"/><path fill="#5b87da" fill-rule="evenodd" d="M195.974 284.335h-11.385L201.398 0h11.662l-17.086 284.335z"/><path fill="#5b87da" fill-rule="evenodd" d="M184.589 284.335h-11.385L190.01 0h11.665l-17.086 284.335z"/><path fill="#7b2981" fill-rule="evenodd" d="M173.204 284.335h-11.387L178.625 0h11.665l-17.086 284.335z"/><path fill="#5b87da" fill-rule="evenodd" d="M161.817 284.335h-11.386L167.239 0h11.663l-17.085 284.335z"/><path fill="#f38b00" fill-rule="evenodd" d="M150.431 284.335h-11.385L155.852 0h11.664l-17.085 284.335z"/><path fill="#7b2981" fill-rule="evenodd" d="M139.046 284.335h-11.388L144.467 0h11.664l-17.085 284.335z"/><path fill="#799900" fill-rule="evenodd" d="M127.658 284.335h-11.386L133.082 0h11.664l-17.088 284.335z"/><path fill="#f38b00" fill-rule="evenodd" d="M116.272 284.335h-11.386L121.696 0h11.662l-17.086 284.335z"/><path fill="#fbd0d8" fill-rule="evenodd" d="M104.886 284.335H93.502L110.308 0h11.664l-17.086 284.335z"/><path fill="#fada6b" fill-rule="evenodd" d="M93.502 284.335H82.115L98.924 0h11.664L93.502 284.335z"/><path fill="#5b87da" fill-rule="evenodd" d="M82.115 284.335H70.729L87.538 0H99.2L82.115 284.335z"/><path fill="#7b2981" fill-rule="evenodd" d="M70.729 284.335H59.343L76.151 0h11.663L70.729 284.335z"/><path fill="#d9272e" fill-rule="evenodd" d="M59.343 284.335H47.959L64.765 0h11.663L59.343 284.335z"/><path fill="#7b2981" fill-rule="evenodd" d="M47.959 284.335H36.571L53.38 0h11.664L47.959 284.335z"/><path fill="#7b2981" fill-rule="evenodd" d="M36.571 284.335H25.184L41.994 0h11.663L36.571 284.335z"/><path fill="#799900" fill-rule="evenodd" d="M25.184 284.335H0V0h42.271L25.184 284.335z"/></svg>