<svg id="Layer_1" data-name="Layer 1" xmlns="http://www.w3.org/2000/svg" viewBox="0 0 132.842 118.7797"><title>ift_process_tag_vector</title><path d="M8.6629,91.59a4.6657,4.6657,0,0,1,1.9163.4037l-0.1849,1.2777a3.9888,3.9888,0,0,0-1.8323-.4539c-0.9918,0-1.5633.5713-1.7483,1.765l-0.168,1.0257h1.58l-0.168,1.2772H6.4607l-1.412,9.4139H3.67l1.3953-9.4139H3.855L4.04,95.6082H5.2672L5.4183,94.7C5.7882,92.5819,6.6792,91.59,8.6629,91.59Z" transform="translate(-3.6701 -3.0443)" fill="#231f20"/><path d="M14.137,102.5a4.6541,4.6541,0,0,1-2.5721.8571,3.2981,3.2981,0,0,1-3.2611-3.5806c0-2.5385,1.5633-4.3537,3.6646-4.3537,1.7314,0,2.7066,1.0421,2.7066,2.975v0.8576H9.8837L9.85,99.76v0.185a1.9869,1.9869,0,0,0,1.8492,2.1686,4.4561,4.4561,0,0,0,2.6727-1.143Zm-0.8238-4.3035V97.995a1.26,1.26,0,0,0-1.3113-1.3956,1.87,1.87,0,0,0-1.8828,1.5974h3.1941Z" transform="translate(-3.6701 -3.0443)" fill="#231f20"/><path d="M21.53,102.5a4.6541,4.6541,0,0,1-2.5721.8571,3.2981,3.2981,0,0,1-3.2612-3.5806c0-2.5385,1.5633-4.3537,3.6646-4.3537,1.7314,0,2.7066,1.0421,2.7066,2.975v0.8576H17.2765l-0.0336.5041v0.185a1.9869,1.9869,0,0,0,1.8492,2.1686,4.4561,4.4561,0,0,0,2.6727-1.143Zm-0.8238-4.3035V97.995a1.26,1.26,0,0,0-1.3113-1.3956,1.87,1.87,0,0,0-1.8828,1.5974h3.1941Z" transform="translate(-3.6701 -3.0443)" fill="#231f20"/><path d="M26.9941,103.3405c-2.5216,0-3.9674-1.311-3.9674-3.3116a4.5371,4.5371,0,0,1,1.967-3.6979,5.3537,5.3537,0,0,1,3.3116-.9247h0.3361l0.5379-3.6984H30.642l-1.7147,11.4985C28.0868,103.29,27.448,103.3405,26.9941,103.3405ZM28.406,96.684c-0.1176,0-.2351-0.0169-0.353-0.0169a3.1944,3.1944,0,0,0-3.5132,3.16,2.1794,2.1794,0,0,0,2.3028,2.3034,3.2488,3.2488,0,0,0,.79-0.084Z" transform="translate(-3.6701 -3.0443)" fill="#231f20"/><path d="M30.7639,103.1894l1.11-7.5812h1.4624l-1.1094,7.5812H30.7639Zm2.1686-10.7248a0.79,0.79,0,1,1-.8069.79A0.7891,0.7891,0,0,1,32.9326,92.4646Z" transform="translate(-3.6701 -3.0443)" fill="#231f20"/><path d="M35.2529,95.6082h1.4624l-0.185,1.21a3.9063,3.9063,0,0,1,2.69-1.395c1.1432,0,1.7987.7562,1.7987,2.0841a7.7116,7.7116,0,0,1-.1009,1.16l-0.6721,4.5222H38.783l0.6893-4.8916a6.1761,6.1761,0,0,0,.0672-0.7567,0.787,0.787,0,0,0-.8741-0.8909,3.2867,3.2867,0,0,0-2.2862,1.53l-0.8069,5.0094H34.11Z" transform="translate(-3.6701 -3.0443)" fill="#231f20"/><path d="M42.0805,102.1976a1.7045,1.7045,0,0,1,1.3786-1.4288,2.2789,2.2789,0,0,1-1.2272-2.1855c0-1.8489,1.2439-2.975,3.5806-2.975h2.9417l-0.168,1.16H47.2918a2.1868,2.1868,0,0,1,.5548,1.479,2.8257,2.8257,0,0,1-1.7483,2.6558,6.6175,6.6175,0,0,1-1.5633.4037c-0.6724.1178-1.0254,0.269-1.0254,0.5717,0,0.5881.84,0.5713,2.1179,0.9918,1.3282,0.42,2.0006.9243,2.0006,1.95,0,1.227-1.1432,2.1851-3.1774,2.1851-2.0674,0-3.2276-.8571-3.2276-1.8828,0-.7731.7229-1.395,2.0847-1.6471C42.484,103.1054,42.0805,102.7693,42.0805,102.1976Zm0.5213,2.7737c0,0.5548.6388,0.9417,1.7987,0.9417,1.143,0,1.7649-.353,1.7649-0.9078,0-.5046-0.521-0.8238-1.5969-1.1266C43.2573,104.2484,42.6018,104.5,42.6018,104.9712Zm2.32-4.9423a1.5964,1.5964,0,0,0,1.4962-1.7311,1.3338,1.3338,0,0,0-1.3282-1.48,1.5626,1.5626,0,0,0-1.5129,1.7147A1.399,1.399,0,0,0,44.9216,100.0289Z" transform="translate(-3.6701 -3.0443)" fill="#231f20"/><path d="M55.4968,101.0377a0.83,0.83,0,0,0,.9414.9411,2.5718,2.5718,0,0,0,1.2774-.437V102.87a3.9361,3.9361,0,0,1-1.7144.4873,1.9412,1.9412,0,0,1-2.0511-2.0508,6.9474,6.9474,0,0,1,.1849-1.3617l0.6725-3.2609H53.53l0.2354-1.0759H55.06l0.37-1.5974h1.496l-0.353,1.5974h1.4962L57.8166,96.684H56.3206l-0.6893,3.2947A6.0242,6.0242,0,0,0,55.4968,101.0377Z" transform="translate(-3.6701 -3.0443)" fill="#231f20"/><path d="M60.3474,91.7079h1.4458l-0.7564,5.0935a3.9433,3.9433,0,0,1,2.7063-1.3782c1.1432,0,1.7987.7393,1.7987,2.0677a8.0979,8.0979,0,0,1-.1009,1.16l-0.6721,4.5386H63.3061l0.6219-4.2025a12.2341,12.2341,0,0,0,.168-1.4119,0.8055,0.8055,0,0,0-.8571-0.9586c-0.6893,0-1.4794.5549-2.4207,1.6477l-0.7229,4.9254H58.6327Z" transform="translate(-3.6701 -3.0443)" fill="#231f20"/><path d="M72.4284,102.5a4.6541,4.6541,0,0,1-2.5721.8571,3.2981,3.2981,0,0,1-3.2611-3.5806c0-2.5385,1.5633-4.3537,3.6646-4.3537,1.7314,0,2.7066,1.0421,2.7066,2.975v0.8576H68.1751l-0.0335.5041v0.185a1.9869,1.9869,0,0,0,1.8492,2.1686,4.4561,4.4561,0,0,0,2.6727-1.143Zm-0.8238-4.3035V97.995a1.26,1.26,0,0,0-1.3113-1.3956,1.87,1.87,0,0,0-1.8827,1.5974h3.194Z" transform="translate(-3.6701 -3.0443)" fill="#231f20"/><path d="M79.39,95.6082h1.4622l-0.168,1.0589a3.6356,3.6356,0,0,1,2.5216-1.2439,1.6554,1.6554,0,0,1,1.765,1.4621,4.1809,4.1809,0,0,1,2.8408-1.4621c1.1435,0,1.7818.706,1.7818,2.0339a8.3428,8.3428,0,0,1-.1173,1.1937l-0.6727,4.5386H87.3409l0.7224-4.9085a4.9063,4.9063,0,0,0,.0676-0.7567,0.7869,0.7869,0,0,0-.874-0.8909,3.2869,3.2869,0,0,0-2.2865,1.53l-0.7393,5.0263H82.7854l0.7224-4.9085a4.9062,4.9062,0,0,0,.0676-0.7567,0.7871,0.7871,0,0,0-.874-0.8909,3.2869,3.2869,0,0,0-2.2865,1.53l-0.706,5.0263H78.2463Z" transform="translate(-3.6701 -3.0443)" fill="#231f20"/><path d="M90.6121,103.1894l1.11-7.5812h1.4627l-1.11,7.5812H90.6121Zm2.1686-10.7248a0.79,0.79,0,1,1-.8069.79A0.789,0.789,0,0,1,92.7807,92.4646Z" transform="translate(-3.6701 -3.0443)" fill="#231f20"/><path d="M95.101,95.6082h1.4627l-0.1855,1.21a3.9083,3.9083,0,0,1,2.69-1.395c1.1434,0,1.7992.7562,1.7992,2.0841a7.7462,7.7462,0,0,1-.1009,1.16l-0.6727,4.5222H98.6313L99.32,98.2978a6.1187,6.1187,0,0,0,.0671-0.7567,0.7868,0.7868,0,0,0-.874-0.8909,3.2853,3.2853,0,0,0-2.286,1.53L95.42,103.1894H93.958Z" transform="translate(-3.6701 -3.0443)" fill="#231f20"/><path d="M105.8335,103.3405c-2.5216,0-3.9669-1.311-3.9669-3.3116a4.5369,4.5369,0,0,1,1.9668-3.6979,5.3539,5.3539,0,0,1,3.3116-.9247h0.3361l0.5379-3.6984h1.4626l-1.7147,11.4985C106.9268,103.29,106.2874,103.3405,105.8335,103.3405Zm1.4125-6.6565c-0.1178,0-.2351-0.0169-0.353-0.0169a3.1947,3.1947,0,0,0-3.5135,3.16,2.1793,2.1793,0,0,0,2.3029,2.3034,3.2521,3.2521,0,0,0,.79-0.084Z" transform="translate(-3.6701 -3.0443)" fill="#231f20"/><path d="M109.7251,100.8866a4.0071,4.0071,0,0,0,2.3029,1.143,0.8962,0.8962,0,0,0,1.0251-.7731c0-.5379-0.5379-0.9078-1.3782-1.4965-1.0257-.7229-1.6476-1.1932-1.6476-2.2526a2.1329,2.1329,0,0,1,2.4212-2.0677,3.929,3.929,0,0,1,2.4038.79l-0.1178,1.53a3.9759,3.9759,0,0,0-2.3536-1.0256,0.7581,0.7581,0,0,0-.8909.6727c0,0.5881.706,0.874,1.7987,1.6978a2.4523,2.4523,0,0,1,1.2608,2.0677,2.2379,2.2379,0,0,1-2.4709,2.1681,4.3545,4.3545,0,0,1-2.7071-1.042Z" transform="translate(-3.6701 -3.0443)" fill="#231f20"/><path d="M20.4018,116.5624a0.83,0.83,0,0,0,.9414.9416,2.5751,2.5751,0,0,0,1.2778-.4375v1.3284a3.9393,3.9393,0,0,1-1.7148.4872,1.941,1.941,0,0,1-2.0508-2.0508A6.9467,6.9467,0,0,1,19.04,115.47l0.6724-3.2609H18.435l0.2354-1.0759h1.2944l0.37-1.5974h1.4962l-0.353,1.5974h1.4962l-0.2523,1.0759H21.2256l-0.6893,3.2947A6.0282,6.0282,0,0,0,20.4018,116.5624Z" transform="translate(-3.6701 -3.0443)" fill="#231f20"/><path d="M25.2525,107.2326h1.4457l-0.7564,5.0935a3.9432,3.9432,0,0,1,2.7063-1.3782c1.1432,0,1.7987.7393,1.7987,2.0677a8.1229,8.1229,0,0,1-.1007,1.16l-0.6727,4.5386H28.2111l0.622-4.2025a12.2656,12.2656,0,0,0,.1683-1.4119,0.8057,0.8057,0,0,0-.8574-0.9586c-0.6893,0-1.4793.5548-2.4207,1.6476L25,118.7141H23.5377Z" transform="translate(-3.6701 -3.0443)" fill="#231f20"/><path d="M35.9012,118.7141l0.1345-.9416a2.4764,2.4764,0,0,1-2.0006,1.0928,2.76,2.76,0,0,1-2.5719-3.0426,4.7836,4.7836,0,0,1,.9749-2.8746,4.6858,4.6858,0,0,1,4.2361-1.8152h1.7652L37.33,118.7141H35.9012Zm0.9245-6.3374a2.96,2.96,0,0,0-.3865-0.0169,3.2225,3.2225,0,0,0-3.4126,3.3116c0,1.21.605,1.9837,1.4624,1.9837a2.15,2.15,0,0,0,1.7652-1.2777Z" transform="translate(-3.6701 -3.0443)" fill="#231f20"/><path d="M41.2731,116.5624a0.83,0.83,0,0,0,.9414.9416,2.5747,2.5747,0,0,0,1.2777-.4375v1.3284a3.9389,3.9389,0,0,1-1.7147.4872,1.941,1.941,0,0,1-2.0508-2.0508,6.95,6.95,0,0,1,.1847-1.3618l0.6724-3.2609H39.3063l0.2354-1.0759h1.2943l0.37-1.5974H42.702l-0.353,1.5974h1.4963l-0.2523,1.0759H42.0969l-0.6893,3.2947A6.0232,6.0232,0,0,0,41.2731,116.5624Z" transform="translate(-3.6701 -3.0443)" fill="#231f20"/><path d="M53.4957,107.1148a4.6657,4.6657,0,0,1,1.9163.4037l-0.1849,1.2777a3.99,3.99,0,0,0-1.8323-.4539c-0.9918,0-1.5633.5713-1.7483,1.765l-0.168,1.0256h1.58l-0.168,1.2772H51.2935l-1.4119,9.4139H48.5029l1.3953-9.4139h-1.21l0.185-1.2772H50.1l0.1511-.9078C50.6211,108.1066,51.512,107.1148,53.4957,107.1148Z" transform="translate(-3.6701 -3.0443)" fill="#231f20"/><path d="M58.97,118.0251a4.6537,4.6537,0,0,1-2.5721.8571,3.2981,3.2981,0,0,1-3.2611-3.5806c0-2.5385,1.5633-4.3537,3.6646-4.3537,1.7314,0,2.7066,1.042,2.7066,2.975v0.8576H54.7165l-0.0335.5041V115.47a1.9868,1.9868,0,0,0,1.8492,2.1686,4.4561,4.4561,0,0,0,2.6727-1.143Zm-0.8238-4.3034V113.52a1.26,1.26,0,0,0-1.3113-1.395,1.87,1.87,0,0,0-1.8827,1.5969H58.146Z" transform="translate(-3.6701 -3.0443)" fill="#231f20"/><path d="M66.3623,118.0251a4.6537,4.6537,0,0,1-2.5721.8571,3.2981,3.2981,0,0,1-3.2611-3.5806c0-2.5385,1.5633-4.3537,3.6646-4.3537,1.7314,0,2.7066,1.042,2.7066,2.975v0.8576h-4.791l-0.0338.5041V115.47a1.987,1.987,0,0,0,1.8492,2.1686,4.4555,4.4555,0,0,0,2.6727-1.143Zm-0.8238-4.3034V113.52a1.26,1.26,0,0,0-1.3113-1.395,1.87,1.87,0,0,0-1.8827,1.5969h3.1941Z" transform="translate(-3.6701 -3.0443)" fill="#231f20"/><path d="M71.8269,118.8653c-2.5217,0-3.9674-1.311-3.9674-3.3116a4.5386,4.5386,0,0,1,1.967-3.6984,5.3572,5.3572,0,0,1,3.3119-.9242h0.3361l0.5379-3.6984h1.4622L73.76,118.731C72.92,118.8151,72.2808,118.8653,71.8269,118.8653Zm1.4119-6.6565c-0.1178,0-.2352-0.0169-0.353-0.0169a3.1945,3.1945,0,0,0-3.5132,3.16,2.1793,2.1793,0,0,0,2.3028,2.3029,3.2507,3.2507,0,0,0,.79-0.084Z" transform="translate(-3.6701 -3.0443)" fill="#231f20"/><path d="M81.7638,116.5624a0.83,0.83,0,0,0,.9411.9416,2.5751,2.5751,0,0,0,1.2777-.4375v1.3284a3.9391,3.9391,0,0,1-1.7147.4872,1.9412,1.9412,0,0,1-2.0508-2.0508,6.9284,6.9284,0,0,1,.185-1.3618l0.6721-3.2609H79.7965l0.2357-1.0759h1.2941l0.37-1.5974h1.4959L82.84,111.1329h1.4959l-0.252,1.0759h-1.496l-0.69,3.2947A6.0242,6.0242,0,0,0,81.7638,116.5624Z" transform="translate(-3.6701 -3.0443)" fill="#231f20"/><path d="M86.6139,107.2326H88.06l-0.7567,5.0935a3.9441,3.9441,0,0,1,2.7066-1.3782c1.143,0,1.7987.7393,1.7987,2.0677a8.1355,8.1355,0,0,1-.1009,1.16l-0.6722,4.5386H89.5725l0.622-4.2025a12.234,12.234,0,0,0,.168-1.4119,0.8056,0.8056,0,0,0-.8571-0.9586c-0.6891,0-1.479.5548-2.4207,1.6476l-0.7229,4.9254H84.8992Z" transform="translate(-3.6701 -3.0443)" fill="#231f20"/><path d="M98.6949,118.0251a4.6515,4.6515,0,0,1-2.5718.8571,3.2984,3.2984,0,0,1-3.2614-3.5806c0-2.5385,1.5636-4.3537,3.6651-4.3537,1.7311,0,2.7061,1.042,2.7061,2.975v0.8576H94.4421l-0.0338.5041V115.47a1.987,1.987,0,0,0,1.8489,2.1686,4.4567,4.4567,0,0,0,2.6733-1.143Zm-0.8238-4.3034V113.52a1.2593,1.2593,0,0,0-1.311-1.395,1.87,1.87,0,0,0-1.8828,1.5969h3.1938Z" transform="translate(-3.6701 -3.0443)" fill="#231f20"/><path d="M104.5128,118.7141l-1.58-7.5813h1.4289l0.9247,4.7067,2.4709-4.7067h0.7065l1.0083,4.7067,2.4038-4.7067h1.4458l-3.95,7.5813h-0.6219L107.69,113.89l-2.4714,4.8245h-0.706Z" transform="translate(-3.6701 -3.0443)" fill="#231f20"/><path d="M116.72,110.9644c1.8658,0,3.0093,1.2946,3.0093,3.3961,0,2.622-1.6138,4.5048-3.7491,4.5048-1.7649,0-2.891-1.2439-2.891-3.3787C113.0894,112.864,114.8206,110.9644,116.72,110.9644Zm-2.0841,4.64c0,1.3279.5713,2.0841,1.4119,2.0841,1.1937,0,2.1518-1.3279,2.1518-3.48,0-1.311-.5379-2.0339-1.4294-2.0339C115.6613,112.175,114.6361,113.654,114.6361,115.6044Z" transform="translate(-3.6701 -3.0443)" fill="#231f20"/><path d="M120.5191,118.7141l1.1266-7.5813h1.4119l-0.2019,1.4289c0.6722-1.0426,1.1937-1.5467,1.9837-1.5467a1.8109,1.8109,0,0,1,.6383.1342l-0.3694,1.3617a1.925,1.925,0,0,0-.4206-0.05c-0.874,0-1.5124.6389-2.1179,1.9668l-0.6389,4.2866h-1.4119Z" transform="translate(-3.6701 -3.0443)" fill="#231f20"/><path d="M128.7587,107.2326l-1.7316,11.4815h-1.496l1.7316-11.4815h1.496Z" transform="translate(-3.6701 -3.0443)" fill="#231f20"/><path d="M132.8639,118.8653c-2.5217,0-3.9674-1.311-3.9674-3.3116a4.5384,4.5384,0,0,1,1.9668-3.6984,5.359,5.359,0,0,1,3.3116-.9242h0.3361l0.5379-3.6984h1.4632l-1.7153,11.4984C133.9566,118.8151,133.3178,118.8653,132.8639,118.8653Zm1.4119-6.6565c-0.1174,0-.2352-0.0169-0.353-0.0169a3.1948,3.1948,0,0,0-3.5135,3.16,2.18,2.18,0,0,0,2.3034,2.3029,3.2505,3.2505,0,0,0,.79-0.084Z" transform="translate(-3.6701 -3.0443)" fill="#231f20"/><path d="M37.2783,20.72C37.23,13.0836,19.7253,8.9031,19.7253,8.9031S23.91,26.43,31.7351,26.43h1.3986V24.372h2.0616V26.43h2.07c0.0133-.0226.0472,0,0.0133-5.71m-8.26-2.5318h-2.06v-2.06h2.06v2.06Zm0.003,2.0687h2.06v2.0513h-2.06V20.2571Zm4.116,4.1129h-2.06V22.3084h2.06V24.37Zm2.0647-2.0616H33.1286V20.255H31.0793v-2.07h2.0493v2.07h2.0738v2.0534Z" transform="translate(-3.6701 -3.0443)" fill="#5987c5"/><path d="M32.396,76.947v-42.16s0.5154-6.2216-4.7082-6.2216l0.002-.0051H18.0244V83.2639H35.6061V83.021c-1.6179-.7439-3.21-2.4007-3.21-6.074" transform="translate(-3.6701 -3.0443)" fill="#231f20"/><path d="M49.52,28.5607v0.0061c-5.6755,0-4.8742,6.6109-4.8742,6.6109V77.3394c0,3.4715-1.6323,5.0115-3.2717,5.6806v0.2438H59.1492V61.99H83.1338V51.66H59.1492V38.9679L95.5114,39.03V83.2639l15.1246,0.0092,0.0487-44.3,18.4224,0.0343V28.5607H49.52Z" transform="translate(-3.6701 -3.0443)" fill="#231f20"/><rect x="31.5283" y="35.7587" width="2.0595" height="2.0605" fill="#78a12f"/><rect x="33.5929" y="29.5658" width="2.0585" height="2.0575" fill="#78a12f"/><rect x="33.5806" y="37.8018" width="2.0698" height="2.0585" fill="#5987c5"/><rect x="35.6504" y="46.0542" width="2.0564" height="2.0442" fill="#78a12f"/><path d="M37.2568,19.4722V26.43h2.0616V24.3689h2.0585V26.43h2.4888C53.3394,26.43,60.77,3.0443,60.77,3.0443S37.2568,8.4595,37.2568,19.4722m6.1765,4.9H41.38V22.3145h2.0533V24.372Zm2.0657-2.0647h-2.07V20.2509h-2.05v2.0616H39.32V20.25h2.0585V18.1924h2.0523v2.0534h2.0677v2.0615Zm2.0575-4.1221H45.4959V16.1268h2.0605v2.0585Z" transform="translate(-3.6701 -3.0443)" fill="#78a12f"/><rect x="33.5806" y="23.3924" width="2.0769" height="2.0513" fill="#5987c5"/><rect x="31.5324" y="60.4708" width="2.0513" height="2.0462" fill="#5987c5"/><rect x="33.5806" y="19.2734" width="2.0708" height="2.0544" fill="#5987c5"/><rect x="31.5324" y="19.2703" width="2.0492" height="2.0575" fill="#78a12f"/><path d="M116.6265,82.7695a1.8831,1.8831,0,1,1,.5507-1.3346A1.81,1.81,0,0,1,116.6265,82.7695Zm-2.4745-2.4771a1.5657,1.5657,0,0,0-.4714,1.1451,1.5833,1.5833,0,0,0,.4688,1.1527,1.6141,1.6141,0,0,0,2.29,0,1.6358,1.6358,0,0,0,0-2.2978A1.611,1.611,0,0,0,114.152,80.2924Zm1.1066,0.105a1.5712,1.5712,0,0,1,.5635.0743,0.5125,0.5125,0,0,1,.32.5231,0.4516,0.4516,0,0,1-.2013.4078,0.7862,0.7862,0,0,1-.2987.1,0.5,0.5,0,0,1,.3545.2023,0.5661,0.5661,0,0,1,.1122.32v0.1511c0,0.0476.0015,0.0989,0.0051,0.1532a0.3325,0.3325,0,0,0,.0179.1076l0.0128,0.0256h-0.3407l-0.0051-.0205-0.0051-.023-0.0077-.0661V82.189a0.5043,0.5043,0,0,0-.1947-0.4724,0.87,0.87,0,0,0-.4047-0.0666H114.9v0.812h-0.3638V80.3974h0.7224Zm0.3929,0.3253a0.9483,0.9483,0,0,0-.4406-0.0768H114.9v0.7479h0.3289a0.9906,0.9906,0,0,0,.3469-0.0461A0.3718,0.3718,0,0,0,115.6516,80.7228Z" transform="translate(-3.6701 -3.0443)" fill="#231f20"/></svg>