<svg id="Layer_1" data-name="Layer 1" xmlns="http://www.w3.org/2000/svg" viewBox="0 0 88 64"><title>ift_process_tag_vectorNO_TAG_mobile</title><path d="M15.6223,14.3065C15.5843,8.3057,1.8289,5.0206,1.8289,5.0206s3.2884,13.7729,9.4375,13.7729h1.099V17.1763h1.62v1.6172h1.6266c.01-.0178.0371,0,.01-4.487m-6.4908-1.99H7.5129V10.6982H9.1317Zm.0024,1.6256h1.6188v1.6119H9.1341V13.9426Zm3.2344,3.232H10.75v-1.62h1.6188v1.62Zm1.6225-1.62h-1.63V13.9411h-1.61V12.3145h1.61v1.6266h1.63v1.6134Z" fill="#5987c5"/><path d="M11.7857,58.4905v-33.13s.405-4.889-3.7-4.889l.0016-.004H.4923V63.4544h13.816v-.1909c-1.2714-.5846-2.5225-1.8865-2.5225-4.773" fill="#231f20"/><path d="M25.242,20.4678v.0048c-4.46,0-3.83,5.1949-3.83,5.1949V58.7989c0,2.728-1.2827,3.9381-2.571,4.4639v.1916H32.8088V46.7371H51.6562V38.62H32.8088V28.646l28.574.0488v34.76l11.8851.0072L73.3061,28.65l14.4766.027V20.4678Z" fill="#231f20"/><rect x="13.9879" y="28.5164" width="1.6184" height="1.6192" fill="#78a12f"/><rect x="15.6103" y="23.6499" width="1.6176" height="1.6168" fill="#78a12f"/><rect x="15.6006" y="30.1219" width="1.6265" height="1.6176" fill="#5987c5"/><rect x="17.2271" y="36.6067" width="1.616" height="1.6064" fill="#78a12f"/><path d="M15.6054,13.326v5.4675h1.62v-1.62H18.843v1.62h1.9557c7.4446,0,13.2837-18.3768,13.2837-18.3768S15.6054,4.672,15.6054,13.326m4.8536,3.85H18.8455v-1.617H20.459v1.617Zm1.6233-1.6225H20.4556V13.9379H18.8447v1.62h-1.618V13.9372h1.6176V12.32H20.457v1.6136h1.6248v1.62Zm1.6168-3.2392H22.08V10.6971H23.699v1.6176Z" fill="#78a12f"/><rect x="15.6006" y="18.7988" width="1.6321" height="1.6119" fill="#5987c5"/><rect x="13.9911" y="47.9355" width="1.6119" height="1.6079" fill="#5987c5"/><rect x="15.6006" y="15.562" width="1.6273" height="1.6144" fill="#5987c5"/><rect x="13.9911" y="15.5596" width="1.6103" height="1.6168" fill="#78a12f"/><path d="M77.9753,63.0659a1.48,1.48,0,1,1,.4327-1.0488A1.4223,1.4223,0,0,1,77.9753,63.0659Zm-1.9445-1.9465a1.23,1.23,0,0,0-.37.9,1.2442,1.2442,0,0,0,.3684.9058,1.2684,1.2684,0,0,0,1.7938.0058l.0058-.0058a1.2854,1.2854,0,0,0,0-1.8056,1.2659,1.2659,0,0,0-1.79-.0072Zm.87.0825a1.2347,1.2347,0,0,1,.4428.0584.4027.4027,0,0,1,.2515.4111.3549.3549,0,0,1-.1582.32.6178.6178,0,0,1-.2347.0786.3929.3929,0,0,1,.2786.159.4448.4448,0,0,1,.0882.2515V62.6c0,.0374.0012.0777.004.12a.2612.2612,0,0,0,.0141.0846l.01.02h-.2677l-.004-.0161-.004-.0181-.006-.0519V62.61a.3963.3963,0,0,0-.153-.3712.6837.6837,0,0,0-.318-.0523h-.2252v.6381h-.2859V61.2019Zm.3087.2556a.7452.7452,0,0,0-.3462-.06h-.2443v.5877h.2585a.7785.7785,0,0,0,.2726-.0362.2922.2922,0,0,0,.06-.4911Z" fill="#231f20"/></svg>