<svg id="Layer_1" data-name="Layer 1" xmlns="http://www.w3.org/2000/svg" viewBox="0 0 253.2193 226.4141"><title>ift_process_tag</title><path d="M22.52,175.3711a8.8937,8.8937,0,0,1,3.6528.7695l-0.3525,2.4356a7.6034,7.6034,0,0,0-3.4927-.8653c-1.8906,0-2.98,1.0889-3.3325,3.3643l-0.32,1.9551h3.0122l-0.32,2.4345H18.3228l-2.6915,17.9444H13.0034l2.66-17.9444H13.356l0.3525-2.4345h2.3394l0.288-1.73C17.041,177.2617,18.7393,175.3711,22.52,175.3711Z" transform="translate(-13.0034 -6.5879)" fill="#231f20"/><path d="M32.9551,196.168a8.8714,8.8714,0,0,1-4.9029,1.6338c-3.6528,0-6.2163-2.8516-6.2163-6.8252,0-4.8389,2.98-8.2989,6.9854-8.2989,3.3,0,5.1592,1.9864,5.1592,5.6709v1.6348H24.8477l-0.064.9609v0.3526c0,2.4355,1.602,4.1338,3.5249,4.1338,1.6343,0,3.2041-.7373,5.0947-2.1787Zm-1.57-8.2032V187.58a2.402,2.402,0,0,0-2.4995-2.66c-1.8262,0-2.9478.9619-3.5889,3.0449h6.0884Z" transform="translate(-13.0034 -6.5879)" fill="#231f20"/><path d="M47.0469,196.168a8.8714,8.8714,0,0,1-4.9029,1.6338c-3.6528,0-6.2163-2.8516-6.2163-6.8252,0-4.8389,2.98-8.2989,6.9854-8.2989,3.3,0,5.1592,1.9864,5.1592,5.6709v1.6348H38.9395l-0.064.9609v0.3526c0,2.4355,1.602,4.1338,3.5249,4.1338,1.6343,0,3.2041-.7373,5.0947-2.1787Zm-1.57-8.2032V187.58a2.402,2.402,0,0,0-2.4995-2.66c-1.8262,0-2.9478.9619-3.5889,3.0449h6.0884Z" transform="translate(-13.0034 -6.5879)" fill="#231f20"/><path d="M57.4629,197.77c-4.8066,0-7.5625-2.499-7.5625-6.3125a8.6485,8.6485,0,0,1,3.7495-7.0488,10.2051,10.2051,0,0,1,6.3125-1.7627H60.603l1.0254-7.05h2.7881l-3.2686,21.918C59.5459,197.6738,58.3281,197.77,57.4629,197.77Zm2.6914-12.6884c-0.2241,0-.4482-0.0323-0.6729-0.0323-4.1015,0-6.6967,2.5957-6.6967,6.0235a4.1544,4.1544,0,0,0,4.39,4.3906,6.1927,6.1927,0,0,0,1.5064-.16Z" transform="translate(-13.0034 -6.5879)" fill="#231f20"/><path d="M64.6489,197.4814L66.7642,183.03h2.7876L67.437,197.4814H64.6489Zm4.1338-20.4433a1.5062,1.5062,0,1,1-1.5381,1.5058A1.5041,1.5041,0,0,1,68.7827,177.0381Z" transform="translate(-13.0034 -6.5879)" fill="#231f20"/><path d="M73.2056,183.03h2.7876l-0.3526,2.3066c1.7627-1.7627,3.4287-2.6592,5.127-2.6592,2.1792,0,3.4287,1.4414,3.4287,3.9727a14.7,14.7,0,0,1-.1924,2.2109l-1.2812,8.62H79.9346l1.3139-9.3242a11.7727,11.7727,0,0,0,.128-1.4424,1.5,1.5,0,0,0-1.6661-1.6982c-1.3139,0-2.788.9609-4.3579,2.916l-1.538,9.5488H71.0264Z" transform="translate(-13.0034 -6.5879)" fill="#231f20"/><path d="M86.22,195.5908c0-1.1211.8975-2.083,2.6279-2.7236a4.344,4.344,0,0,1-2.3393-4.166c0-3.5244,2.3711-5.6709,6.8252-5.6709h5.6074l-0.32,2.2109H96.1538a4.1684,4.1684,0,0,1,1.0576,2.8193,5.3863,5.3863,0,0,1-3.3325,5.0625,12.6141,12.6141,0,0,1-2.98.77c-1.2817.2246-1.9546,0.5127-1.9546,1.09,0,1.1211,1.6021,1.0889,4.0371,1.8906,2.5318,0.8008,3.8135,1.7618,3.8135,3.7168,0,2.3389-2.1792,4.1651-6.0566,4.1651-3.9409,0-6.1524-1.6338-6.1524-3.5889,0-1.4736,1.378-2.6592,3.9737-3.14C86.9893,197.3213,86.22,196.6807,86.22,195.5908Zm0.9937,5.2871c0,1.0576,1.2177,1.795,3.4287,1.795,2.1787,0,3.3642-.6729,3.3642-1.73,0-.9619-0.9931-1.57-3.0439-2.1475C88.4634,199.5,87.2139,199.9805,87.2139,200.8779Zm4.4218-9.4209a3.043,3.043,0,0,0,2.8521-3.3,2.5425,2.5425,0,0,0-2.5317-2.82,2.9787,2.9787,0,0,0-2.8838,3.2686A2.6668,2.6668,0,0,0,91.6357,191.457Z" transform="translate(-13.0034 -6.5879)" fill="#231f20"/><path d="M111.7939,193.38a1.5815,1.5815,0,0,0,1.7945,1.7939,4.9022,4.9022,0,0,0,2.435-.833v2.5322a7.5029,7.5029,0,0,1-3.268.9288,3.7,3.7,0,0,1-3.91-3.9092,13.243,13.243,0,0,1,.3525-2.5957l1.2818-6.2158h-2.4351l0.4488-2.0508h2.4672l0.7051-3.0449h2.8516l-0.6729,3.0449h2.8521l-0.481,2.0508h-2.8515l-1.314,6.28A11.4831,11.4831,0,0,0,111.7939,193.38Z" transform="translate(-13.0034 -6.5879)" fill="#231f20"/><path d="M121.04,175.5957h2.7559l-1.4419,9.709c1.7944-1.7617,3.46-2.627,5.1587-2.627,2.1792,0,3.4287,1.4092,3.4287,3.9414a15.4359,15.4359,0,0,1-.1924,2.211l-1.2812,8.6513H126.68l1.1855-8.0107a23.32,23.32,0,0,0,.32-2.6914,1.5354,1.5354,0,0,0-1.6337-1.8272c-1.314,0-2.82,1.0577-4.6143,3.1407l-1.3779,9.3886h-2.7881Z" transform="translate(-13.0034 -6.5879)" fill="#231f20"/><path d="M144.0684,196.168a8.8714,8.8714,0,0,1-4.9029,1.6338c-3.6528,0-6.2163-2.8516-6.2163-6.8252,0-4.8389,2.98-8.2989,6.9854-8.2989,3.3,0,5.1592,1.9864,5.1592,5.6709v1.6348h-9.1329l-0.0639.9609v0.3526c0,2.4355,1.602,4.1338,3.5249,4.1338,1.6343,0,3.2041-.7373,5.0947-2.1787Zm-1.57-8.2032V187.58a2.4019,2.4019,0,0,0-2.5-2.66c-1.8261,0-2.9477.9619-3.5888,3.0449h6.0883Z" transform="translate(-13.0034 -6.5879)" fill="#231f20"/><path d="M157.3379,183.03h2.7871l-0.32,2.0185a6.93,6.93,0,0,1,4.8066-2.3711,3.1555,3.1555,0,0,1,3.3643,2.7871c1.9228-1.8261,3.5576-2.7871,5.415-2.7871,2.18,0,3.3965,1.3457,3.3965,3.877a15.9027,15.9027,0,0,1-.2236,2.2754l-1.2822,8.6513h-2.7872l1.377-9.3564A9.3522,9.3522,0,0,0,174,186.6826a1.5,1.5,0,0,0-1.666-1.6982c-1.3145,0-2.7881.9609-4.3584,2.916l-1.4092,9.581H163.81l1.377-9.3564a9.352,9.352,0,0,0,.1289-1.4424,1.5,1.5,0,0,0-1.666-1.6982c-1.3145,0-2.7881.9609-4.3584,2.916l-1.3457,9.581h-2.7881Z" transform="translate(-13.0034 -6.5879)" fill="#231f20"/><path d="M178.7295,197.4814l2.1152-14.4511h2.7881l-2.1152,14.4511h-2.7881Zm4.1338-20.4433a1.5062,1.5062,0,1,1-1.5381,1.5058A1.504,1.504,0,0,1,182.8633,177.0381Z" transform="translate(-13.0034 -6.5879)" fill="#231f20"/><path d="M187.2861,183.03h2.7881l-0.3535,2.3066c1.7637-1.7627,3.43-2.6592,5.127-2.6592,2.18,0,3.43,1.4414,3.43,3.9727a14.7657,14.7657,0,0,1-.1923,2.2109l-1.2823,8.62h-2.7871l1.3135-9.3242a11.6634,11.6634,0,0,0,.1279-1.4424,1.5,1.5,0,0,0-1.666-1.6982c-1.3144,0-2.7881.9609-4.3574,2.916l-1.5391,9.5488h-2.7871Z" transform="translate(-13.0034 -6.5879)" fill="#231f20"/><path d="M207.7441,197.77c-4.8066,0-7.5615-2.499-7.5615-6.3125a8.648,8.648,0,0,1,3.749-7.0488,10.2055,10.2055,0,0,1,6.3125-1.7627h0.6407l1.0254-7.05h2.788l-3.2685,21.918C209.8281,197.6738,208.6094,197.77,207.7441,197.77Zm2.6924-12.6884c-0.2246,0-.4482-0.0323-0.6728-0.0323-4.1016,0-6.6973,2.5957-6.6973,6.0235a4.1541,4.1541,0,0,0,4.39,4.3906,6.199,6.199,0,0,0,1.5068-.16Z" transform="translate(-13.0034 -6.5879)" fill="#231f20"/><path d="M215.1621,193.0918c1.7617,1.4092,3.1074,2.1787,4.39,2.1787a1.7083,1.7083,0,0,0,1.9541-1.4736c0-1.0254-1.0254-1.73-2.627-2.8526-1.9551-1.3779-3.1406-2.2744-3.1406-4.2939,0-2.2744,1.73-3.9414,4.6152-3.9414a7.4892,7.4892,0,0,1,4.582,1.5068l-0.2246,2.916a7.5788,7.5788,0,0,0-4.4863-1.955,1.4451,1.4451,0,0,0-1.6982,1.2822c0,1.1211,1.3457,1.666,3.4287,3.2363,1.6015,1.2168,2.4033,2.2422,2.4033,3.9414,0,2.3711-1.8906,4.1328-4.71,4.1328a8.3,8.3,0,0,1-5.16-1.9863Z" transform="translate(-13.0034 -6.5879)" fill="#231f20"/><path d="M44.897,222.9727a1.5821,1.5821,0,0,0,1.7944,1.7949,4.9086,4.9086,0,0,0,2.4356-.834v2.5322a7.509,7.509,0,0,1-3.2686.9287,3.7,3.7,0,0,1-3.9092-3.9091,13.2416,13.2416,0,0,1,.3521-2.5958l1.2817-6.2158H41.1479l0.4488-2.0508H44.064l0.7046-3.0449h2.852l-0.6728,3.0449H49.8l-0.481,2.0508H46.4673l-1.314,6.28A11.4907,11.4907,0,0,0,44.897,222.9727Z" transform="translate(-13.0034 -6.5879)" fill="#231f20"/><path d="M54.1431,205.1885h2.7558l-1.4419,9.709c1.7945-1.7618,3.46-2.627,5.1587-2.627,2.1792,0,3.4287,1.4092,3.4287,3.9414a15.4836,15.4836,0,0,1-.1919,2.211L62.57,227.0742H59.7827l1.1856-8.0107a23.38,23.38,0,0,0,.3208-2.6914,1.5358,1.5358,0,0,0-1.6343-1.8272c-1.314,0-2.82,1.0576-4.6143,3.1406l-1.3779,9.3887H50.8745Z" transform="translate(-13.0034 -6.5879)" fill="#231f20"/><path d="M74.4414,227.0742l0.2564-1.7949a4.7205,4.7205,0,0,1-3.8135,2.083c-2.7237,0-4.9024-2.3711-4.9024-5.8a9.1184,9.1184,0,0,1,1.8584-5.48c2.0186-2.6592,4.4541-3.46,8.0747-3.46H79.28L77.165,227.0742H74.4414Zm1.7622-12.08a5.6419,5.6419,0,0,0-.7368-0.0322,6.1426,6.1426,0,0,0-6.5049,6.3125c0,2.3067,1.1533,3.7813,2.7876,3.7813,1.2818,0,2.4033-.833,3.3648-2.4356Z" transform="translate(-13.0034 -6.5879)" fill="#231f20"/><path d="M84.6812,222.9727a1.5821,1.5821,0,0,0,1.7944,1.7949,4.9079,4.9079,0,0,0,2.4355-.834v2.5322a7.5082,7.5082,0,0,1-3.2685.9287,3.7,3.7,0,0,1-3.9092-3.9091,13.2486,13.2486,0,0,1,.352-2.5958l1.2818-6.2158H80.9321l0.4488-2.0508h2.4672l0.7046-3.0449h2.8521l-0.6729,3.0449H89.584l-0.481,2.0508H86.2515l-1.314,6.28A11.4813,11.4813,0,0,0,84.6812,222.9727Z" transform="translate(-13.0034 -6.5879)" fill="#231f20"/><path d="M107.9795,204.9639a8.8936,8.8936,0,0,1,3.6528.7695l-0.3525,2.4355a7.6046,7.6046,0,0,0-3.4927-.8652c-1.8906,0-2.98,1.0889-3.3325,3.3643l-0.32,1.955h3.0122l-0.32,2.4346h-3.0445L101.09,233.002H98.4624l2.66-17.9444H98.8149l0.3526-2.4346h2.3393l0.2881-1.73C102.5,206.8545,104.1982,204.9639,107.9795,204.9639Z" transform="translate(-13.0034 -6.5879)" fill="#231f20"/><path d="M118.4141,225.7607a8.8707,8.8707,0,0,1-4.9029,1.6338c-3.6528,0-6.2163-2.8515-6.2163-6.8252,0-4.8388,2.98-8.2988,6.9854-8.2988,3.3,0,5.1592,1.9863,5.1592,5.6709v1.6348h-9.1329l-0.0639.9609V220.89c0,2.4356,1.602,4.1338,3.5249,4.1338,1.6343,0,3.2041-.7373,5.0947-2.1787Zm-1.57-8.2031v-0.3847a2.4011,2.4011,0,0,0-2.5-2.6592c-1.8261,0-2.9477.9609-3.5888,3.0439h6.0884Z" transform="translate(-13.0034 -6.5879)" fill="#231f20"/><path d="M132.5054,225.7607a8.8707,8.8707,0,0,1-4.9029,1.6338c-3.6528,0-6.2163-2.8515-6.2163-6.8252,0-4.8388,2.98-8.2988,6.9854-8.2988,3.3,0,5.1592,1.9863,5.1592,5.6709v1.6348h-9.1324l-0.0644.9609V220.89c0,2.4356,1.6025,4.1338,3.5249,4.1338,1.6343,0,3.2046-.7373,5.0947-2.1787Zm-1.57-8.2031v-0.3847a2.4011,2.4011,0,0,0-2.5-2.6592c-1.8261,0-2.9477.9609-3.5888,3.0439h6.0884Z" transform="translate(-13.0034 -6.5879)" fill="#231f20"/><path d="M142.9219,227.3623c-4.8067,0-7.5625-2.499-7.5625-6.3125a8.6514,8.6514,0,0,1,3.7495-7.05,10.2118,10.2118,0,0,1,6.313-1.7617h0.6406l1.0254-7.05h2.7871l-3.2676,21.9179C145.0049,227.2666,143.7871,227.3623,142.9219,227.3623Zm2.6914-12.6885c-0.2246,0-.4483-0.0322-0.6729-0.0322-4.1015,0-6.6967,2.5957-6.6967,6.0244a4.1541,4.1541,0,0,0,4.39,4.39,6.1964,6.1964,0,0,0,1.5063-.16Z" transform="translate(-13.0034 -6.5879)" fill="#231f20"/><path d="M161.8633,222.9727a1.5818,1.5818,0,0,0,1.7939,1.7949,4.9085,4.9085,0,0,0,2.4356-.834v2.5322a7.5085,7.5085,0,0,1-3.2686.9287,3.7,3.7,0,0,1-3.9092-3.9091,13.2067,13.2067,0,0,1,.3526-2.5958l1.2812-6.2158h-2.4355l0.4492-2.0508h2.4668l0.7051-3.0449h2.8515l-0.6718,3.0449h2.8515l-0.48,2.0508h-2.8516l-1.3145,6.28A11.4832,11.4832,0,0,0,161.8633,222.9727Z" transform="translate(-13.0034 -6.5879)" fill="#231f20"/><path d="M171.1084,205.1885h2.7559l-1.4424,9.709c1.7949-1.7618,3.4609-2.627,5.1592-2.627,2.1787,0,3.4287,1.4092,3.4287,3.9414a15.5076,15.5076,0,0,1-.1924,2.211l-1.2813,8.6513H176.748l1.1856-8.0107a23.32,23.32,0,0,0,.32-2.6914,1.5357,1.5357,0,0,0-1.6338-1.8272c-1.3135,0-2.8193,1.0576-4.6142,3.1406l-1.378,9.3887H167.84Z" transform="translate(-13.0034 -6.5879)" fill="#231f20"/><path d="M194.1367,225.7607a8.8666,8.8666,0,0,1-4.9023,1.6338c-3.6524,0-6.2168-2.8515-6.2168-6.8252,0-4.8388,2.98-8.2988,6.9863-8.2988,3.3,0,5.1582,1.9863,5.1582,5.6709v1.6348H186.03l-0.0645.9609V220.89c0,2.4356,1.6026,4.1338,3.5244,4.1338,1.6348,0,3.2051-.7373,5.0957-2.1787Zm-1.57-8.2031v-0.3847a2.4,2.4,0,0,0-2.499-2.6592c-1.8262,0-2.9483.9609-3.5889,3.0439h6.0879Z" transform="translate(-13.0034 -6.5879)" fill="#231f20"/><path d="M205.2266,227.0742l-3.0118-14.4512h2.7237l1.7627,8.9717,4.71-8.9717h1.3467l1.9219,8.9717,4.582-8.9717h2.7559l-7.53,14.4512h-1.1855l-2.0186-9.1963-4.7109,9.1963h-1.3457Z" transform="translate(-13.0034 -6.5879)" fill="#231f20"/><path d="M228.4961,212.3018c3.5566,0,5.7363,2.4677,5.7363,6.4736,0,4.998-3.0761,8.5869-7.1465,8.5869-3.3642,0-5.5107-2.3711-5.5107-6.44C221.5752,215.9229,224.875,212.3018,228.4961,212.3018Zm-3.9727,8.8447c0,2.5312,1.0889,3.9726,2.6914,3.9726,2.2754,0,4.1016-2.5312,4.1016-6.6328,0-2.499-1.0254-3.8769-2.7246-3.8769C226.4775,214.6094,224.5234,217.4287,224.5234,221.1465Z" transform="translate(-13.0034 -6.5879)" fill="#231f20"/><path d="M235.7373,227.0742l2.1475-14.4512h2.6914l-0.3848,2.7237c1.2813-1.9873,2.2754-2.9483,3.7813-2.9483a3.4519,3.4519,0,0,1,1.2168.2559l-0.7041,2.5957a3.6693,3.6693,0,0,0-.8018-0.0957c-1.666,0-2.8828,1.2178-4.0371,3.749l-1.2178,8.1709h-2.6914Z" transform="translate(-13.0034 -6.5879)" fill="#231f20"/><path d="M251.4434,205.1885l-3.3008,21.8857H245.291l3.3008-21.8857h2.8516Z" transform="translate(-13.0034 -6.5879)" fill="#231f20"/><path d="M259.2686,227.3623c-4.8067,0-7.5625-2.499-7.5625-6.3125a8.6509,8.6509,0,0,1,3.749-7.05,10.2151,10.2151,0,0,1,6.3125-1.7617h0.6406l1.0254-7.05h2.7891l-3.27,21.9179C261.3516,227.2666,260.1338,227.3623,259.2686,227.3623Zm2.6914-12.6885c-0.2237,0-.4483-0.0322-0.6729-0.0322-4.1016,0-6.6973,2.5957-6.6973,6.0244a4.1547,4.1547,0,0,0,4.3907,4.39,6.196,6.196,0,0,0,1.5058-.16Z" transform="translate(-13.0034 -6.5879)" fill="#231f20"/><path d="M77.0664,40.2812c-0.0918-14.5566-33.459-22.5253-33.459-22.5253S51.584,51.166,66.5,51.166h2.666V47.2422h3.93V51.166H77.041c0.0254-.043.09,0,0.0254-10.8848M61.3223,35.4551H57.3965V31.5293h3.9258v3.9258Zm0.0058,3.9433h3.9258v3.91H61.3281v-3.91Zm7.8457,7.84H65.248v-3.93h3.9258v3.93Zm3.9356-3.93H69.1563V39.3945H65.25V35.4492h3.9063v3.9453h3.9531v3.9141Z" transform="translate(-13.0034 -6.5879)" fill="#5987c5"/><path d="M67.76,147.459V67.0957s0.9824-11.8594-8.9746-11.8594l0.0039-.01H40.3652V159.5H73.8789v-0.4629c-3.084-1.418-6.1191-4.5762-6.1191-11.5781" transform="translate(-13.0034 -6.5879)" fill="#231f20"/><path d="M100.4,55.2266v0.0117c-10.8184,0-9.291,12.6015-9.291,12.6015V148.207c0,6.6172-3.1114,9.5528-6.2364,10.8282V159.5h33.8829V118.9492h45.7187V99.2578H118.7559V75.0645l69.3125,0.1191V159.5l28.83,0.0176,0.0928-84.4424,35.1162,0.0654V55.2266H100.4Z" transform="translate(-13.0034 -6.5879)" fill="#231f20"/><rect x="60.0982" y="68.1621" width="3.9257" height="3.9277" fill="#78a12f"/><rect x="64.0337" y="56.3574" width="3.9238" height="3.9219" fill="#78a12f"/><rect x="64.0103" y="72.0566" width="3.9453" height="3.9239" fill="#5987c5"/><rect x="67.9556" y="87.7871" width="3.9199" height="3.8965" fill="#78a12f"/><path d="M77.0254,37.9023V51.166h3.93v-3.93h3.9238v3.93H89.623c18.0586,0,32.2227-44.5781,32.2227-44.5781s-44.82,10.3223-44.82,31.3144m11.7734,9.34h-3.914V43.32h3.914v3.9219Zm3.9375-3.9356H88.791v-3.92H84.8828v3.93H80.959V39.3848h3.9238V35.4629h3.9121V39.377h3.9414v3.93Zm3.9219-7.8574H92.73V31.5254h3.9277v3.9238Z" transform="translate(-13.0034 -6.5879)" fill="#78a12f"/><rect x="64.0103" y="44.5898" width="3.959" height="3.9102" fill="#5987c5"/><rect x="60.106" y="115.2676" width="3.9101" height="3.9004" fill="#5987c5"/><rect x="64.0103" y="36.7383" width="3.9472" height="3.916" fill="#5987c5"/><rect x="60.106" y="36.7324" width="3.9062" height="3.9219" fill="#78a12f"/><path d="M228.3174,158.5576a3.5894,3.5894,0,1,1,1.05-2.5439A3.4509,3.4509,0,0,1,228.3174,158.5576Zm-4.7168-4.7217a2.9846,2.9846,0,0,0-.8985,2.1827,3.018,3.018,0,0,0,.8936,2.1972,3.0767,3.0767,0,0,0,4.3652,0,3.1181,3.1181,0,0,0,0-4.38A3.0708,3.0708,0,0,0,223.6006,153.8359Zm2.1094,0.2a2.995,2.995,0,0,1,1.0742.1416,0.9768,0.9768,0,0,1,.61.9971,0.8608,0.8608,0,0,1-.3838.7773,1.4985,1.4985,0,0,1-.5693.1905,0.9531,0.9531,0,0,1,.6758.3857,1.0792,1.0792,0,0,1,.2139.6094v0.2881c0,0.0908.0029,0.1885,0.01,0.292a0.6338,0.6338,0,0,0,.0342.2051l0.0244,0.0488H226.75l-0.01-.0391c-0.0029-.0127-0.0068-0.0273-0.01-0.0439l-0.0147-.126v-0.3115a0.9613,0.9613,0,0,0-.3711-0.9,1.6584,1.6584,0,0,0-.7715-0.127h-0.5468v1.5479H224.333v-3.9356h1.377Zm0.749,0.62a1.8076,1.8076,0,0,0-.84-0.1464h-0.5927v1.4257h0.6269a1.8883,1.8883,0,0,0,.6612-0.0878A0.7087,0.7087,0,0,0,226.459,154.6562Z" transform="translate(-13.0034 -6.5879)" fill="#231f20"/></svg>