<svg x="0px" y="0px" width="300px" height="135px" viewBox="0 0 300 135" enable-background="new 0 0 300 135" xml:space="preserve">
<polygon fill="#FFFFFF" points="193.1,43.8 193.1,61 206.8,61 206.8,133.6 226.4,133.6 226.4,43.8 "/>
<path fill="#FFFFFF" d="M25.5,123.3V54.1c0,0,0.8-10.2-7.7-10.2l0,0H1.9v89.8h28.9v-0.4C28.1,132,25.5,129.3,25.5,123.3"/>
<path fill="#FFFFFF" d="M53.6,43.9L53.6,43.9c-9.3,0-8,10.9-8,10.9v69.2c0,5.7-2.7,8.2-5.4,9.3v0.4h29.2V98.7h39.4v-17H69.4l0-20.8
	l59.7,0v72.6l24.8,0L154,61l30.2,0V43.9H53.6z"/>
<g>
	<path fill="#FFFFFF" d="M163.7,132.8c-0.6,0.6-1.3,0.9-2.2,0.9c-0.9,0-1.6-0.3-2.2-0.9c-0.6-0.6-0.9-1.3-0.9-2.2
		c0-0.8,0.3-1.6,0.9-2.2c0.6-0.6,1.3-0.9,2.2-0.9c0.9,0,1.6,0.3,2.2,0.9c0.6,0.6,0.9,1.3,0.9,2.2
		C164.6,131.5,164.3,132.2,163.7,132.8z M159.7,128.8c-0.5,0.5-0.8,1.1-0.8,1.9c0,0.7,0.3,1.4,0.8,1.9c0.5,0.5,1.1,0.8,1.9,0.8
		c0.7,0,1.4-0.3,1.9-0.8c0.5-0.5,0.8-1.2,0.8-1.9c0-0.7-0.3-1.4-0.8-1.9c-0.5-0.5-1.1-0.8-1.9-0.8
		C160.8,128,160.2,128.3,159.7,128.8z M161.5,128.9c0.4,0,0.7,0,0.9,0.1c0.4,0.1,0.5,0.4,0.5,0.9c0,0.3-0.1,0.5-0.3,0.7
		c-0.1,0.1-0.3,0.1-0.5,0.2c0.3,0,0.5,0.2,0.6,0.3c0.1,0.2,0.2,0.4,0.2,0.5v0.2c0,0.1,0,0.2,0,0.3c0,0.1,0,0.1,0,0.2l0,0h-0.6
		c0,0,0,0,0,0c0,0,0,0,0,0l0-0.1v-0.3c0-0.4-0.1-0.7-0.3-0.8c-0.1-0.1-0.3-0.1-0.7-0.1h-0.5v1.3h-0.6v-3.4H161.5z M162.1,129.5
		c-0.1-0.1-0.4-0.1-0.7-0.1h-0.5v1.2h0.5c0.3,0,0.4,0,0.6-0.1c0.2-0.1,0.3-0.3,0.3-0.5C162.4,129.7,162.3,129.6,162.1,129.5z"/>
</g>
<g>
	<rect x="31.7" y="101.3" fill="#FFFFFF" width="3.2" height="3.2"/>
	<rect x="28.6" y="60.9" fill="#FFFFFF" width="3.2" height="3.2"/>
	<rect x="31.8" y="50.5" fill="#FFFFFF" width="3.2" height="3.2"/>
	<rect x="31.7" y="64.1" fill="#FFFFFF" width="3.2" height="3.2"/>
	<rect x="38" y="77.7" fill="#FFFFFF" width="3.2" height="3.2"/>
	<rect x="34.9" y="40.4" fill="#FFFFFF" width="3.2" height="3.2"/>
	<path fill="#FFFFFF" d="M33.5,28.7l0.1,1.5C31.6,17.9,4.7,11.6,4.7,11.6s6.9,28.7,19.7,28.7h4.2v-3.2h3.1v3.2c1.1,0,1.7,0,1.7,0H35
		v-3.2h3.1v3.2h6.1C60,40.3,72.1,2,72.1,2c-2,0.6-35.9,8.4-38.4,25.1 M38.1,27.6h3.2v3.3h-3.2V27.6z M22.1,27.5h-3.2v-3.2h3.2V27.5z
		 M22.2,30.8h3.2v3.1h-3.2V30.8z M25.4,37.1V34h3.2v-3.1h-3.1v-3.3h3.2v3.2h3.2V34h-3.1v3.2H25.4z M41.3,37.1h-3.2V34H35v3.1h-3.3
		V34H35v-3.1h3.2V34h3.1V37.1z M44.5,34h-3.2v-3.2h3.2V34z M47.6,27.6h-3.2v-3.2h3.2V27.6z"/>
</g>
<path fill="#FFFFFF" d="M298.5,58.1c-1.3,2.8-29.2,65.5-33.4,75.5h-19.8c3.9-8.8,31.1-70.5,32-72.6h-43.7V43.8h64.8V58.1z"/>
</svg>