<svg id="Layer_1" data-name="Layer 1" xmlns="http://www.w3.org/2000/svg" viewBox="0 0 195.9333 87.0007"><title>logo-white</title><polygon points="126.306 27.613 126.306 38.975 135.357 38.975 135.357 86.935 148.304 86.935 148.304 27.613 126.306 27.613" fill="#fff"/><path d="M17.49,81.1305V35.4171s0.5285-6.7381-5.0866-6.7381H1.9V88.0007H20.9913V87.7365c-1.7836-.8588-3.5012-2.6424-3.5012-6.606" transform="translate(-1.9 -1)" fill="#fff"/><path d="M36.0529,28.6791h0c-6.1436,0-5.2848,7.2005-5.2848,7.2005V81.5929c0,3.7654-1.7836,5.4169-3.5672,6.1436v0.2642H46.49V64.88H72.5179V53.65H46.49v-13.74H85.9281V87.8686h16.3828l0.0661-47.8933h19.95V28.6791H36.0529Z" transform="translate(-1.9 -1)" fill="#fff"/><path d="M108.7847,87.4062a2.0479,2.0479,0,0,1-3.5012-1.4533,2.0493,2.0493,0,0,1,.5945-1.4533A2.0553,2.0553,0,0,1,108.7847,87.4062Zm-2.6424-2.6424a1.6914,1.6914,0,0,0-.5285,1.2551,1.8048,1.8048,0,0,0,.5285,1.2551,1.6914,1.6914,0,0,0,1.2551.5285,1.7751,1.7751,0,0,0,1.2551-3.0387A1.7547,1.7547,0,0,0,106.1423,84.7638Zm1.1891,0.0661a1.4662,1.4662,0,0,1,.5945.0661,0.4925,0.4925,0,0,1,.33.5945,0.6,0.6,0,0,1-.1982.4624,1.695,1.695,0,0,1-.33.1321,0.5646,0.5646,0,0,1,.3964.1982,1.1159,1.1159,0,0,1,.1321.33v0.4624H107.86V86.8117a0.5692,0.5692,0,0,0-.1982-0.5285,0.7293,0.7293,0,0,0-.4624-0.0661h-0.33v0.8588h-0.3964V84.83h0.8588Zm0.3964,0.3964a0.8491,0.8491,0,0,0-.4624-0.0661h-0.33v0.7927h0.33a0.7152,0.7152,0,0,0,.3964-0.0661,0.3633,0.3633,0,0,0,.1982-0.33A0.2235,0.2235,0,0,0,107.7278,85.2262Z" transform="translate(-1.9 -1)" fill="#fff"/><rect x="19.6858" y="65.5974" width="2.1139" height="2.1139" fill="#fff"/><rect x="17.638" y="38.9092" width="2.1139" height="2.1139" fill="#fff"/><rect x="19.7519" y="32.039" width="2.1139" height="2.1139" fill="#fff"/><rect x="19.6858" y="41.0231" width="2.1139" height="2.1139" fill="#fff"/><rect x="23.8476" y="50.0073" width="2.1139" height="2.1139" fill="#fff"/><rect x="21.7997" y="25.367" width="2.1139" height="2.1139" fill="#fff"/><path d="M22.7749,18.638l0.0661,0.9909C21.52,11.5035,3.75,7.3417,3.75,7.3417S8.3078,26.3009,16.7635,26.3009H19.538V24.187h2.0479v2.1139h2.18V24.187h2.0479v2.1139h4.03C40.2807,26.3009,48.274,1,48.274,1c-1.3212.3964-23.7155,5.549-25.367,16.581m2.9066,0.33h2.1139v2.18H25.8136v-2.18Zm-10.57-.0661H13.13V15.7313h2.1139v2.1139Zm0.0661,2.18h2.1139v2.0479H15.31V20.0252Zm2.1139,4.1618V22.1391H19.538V20.0913H17.49v-2.18H19.604v2.1139h2.1139v2.1139H19.67V24.253h-2.246V24.187Zm10.5035,0H25.8136V22.1391H23.7658V24.187h-2.18V22.1391h2.18V20.0913H25.88v2.0479h2.0479V24.187Zm2.1139-2.0479H27.9276V20.0252h2.1139v2.1139Zm2.0479-4.2278H29.9754V15.7974h2.1139v2.1139Z" transform="translate(-1.9 -1)" fill="#fff"/><path d="M197.8333,38.06c-0.8588,1.85-19.2895,43.2692-22.064,49.8751H162.69c2.5763-5.8133,20.5446-46.5722,21.1391-47.9594H154.9605V28.613h42.8067V38.06h0.0661Z" transform="translate(-1.9 -1)" fill="#fff"/></svg>