<svg data-name="Layer 1" xmlns="http://www.w3.org/2000/svg" viewBox="0 0 122 90"><title>Artboard 1</title><path d="M16.59 81.13V35.417s.528-6.738-5.087-6.738H1v59.322h19.091v-.265c-1.783-.858-3.5-2.642-3.5-6.606M35.153 28.68c-6.144 0-5.285 7.2-5.285 7.2v45.713c0 3.765-1.783 5.417-3.567 6.143v.265H45.59V64.88h26.028V53.65H45.59V39.91h39.438v47.959h16.383l.066-47.894h19.95V28.68zM107.885 87.406a2.055 2.055 0 1 1 0-2.907 2.048 2.048 0 0 1 0 2.907zm-2.643-2.642a1.691 1.691 0 0 0-.528 1.255 1.805 1.805 0 0 0 .528 1.255 1.691 1.691 0 0 0 1.255.528 1.775 1.775 0 0 0 1.255-3.038 1.755 1.755 0 0 0-2.48-.029zm1.19.066a1.466 1.466 0 0 1 .594.066.492.492 0 0 1 .33.595.6.6 0 0 1-.198.462 1.695 1.695 0 0 1-.33.132.565.565 0 0 1 .396.198 1.116 1.116 0 0 1 .132.33v.463h-.396v-.264a.57.57 0 0 0-.198-.529.73.73 0 0 0-.463-.066h-.33v.859h-.396V84.83h.858zm.396.396a.85.85 0 0 0-.463-.066h-.33v.793h.33a.715.715 0 0 0 .397-.066.363.363 0 0 0 .198-.33.224.224 0 0 0-.132-.33zM20.686 66.597H22.8v2.114h-2.114zM18.638 39.909h2.114v2.114h-2.114zM20.752 33.039h2.114v2.114h-2.114zM20.686 42.023H22.8v2.114h-2.114zM24.848 51.007h2.114v2.114h-2.114zM22.8 26.367h2.114v2.114H22.8zM21.875 18.638l.066.99C20.62 11.505 2.85 7.343 2.85 7.343S7.408 26.3 15.864 26.3h2.774v-2.114h2.048v2.114h2.18v-2.114h2.048v2.114h4.03C39.38 26.3 47.374 1 47.374 1c-1.321.396-23.715 5.549-25.367 16.581m2.907.33h2.114v2.18h-2.114zm-10.57-.066H12.23V15.73h2.114v2.114zm.066 2.18h2.114v2.048H14.41v-2.048zm2.114 4.162v-2.048h2.114v-2.048H16.59v-2.18h2.114v2.114h2.114v2.114H18.77v2.114h-2.246v-.066zm10.503 0h-2.113v-2.048h-2.048v2.048h-2.18v-2.048h2.18v-2.048h2.114v2.048h2.048v2.048zm2.114-2.048h-2.113v-2.114h2.114v2.114zm2.048-4.228h-2.114v-2.114h2.114v2.114z" fill="#fff"/></svg>