<svg data-name="Layer 1" xmlns="http://www.w3.org/2000/svg" width="20" height="24" viewBox="0 0 20 24"><title>icon_button_android</title><path d="M4 8l.001 9.444A1.555 1.555 0 0 0 5.558 19H6v3.542A1.506 1.506 0 0 0 7.51 24 1.486 1.486 0 0 0 9 22.541V19h2v3.542A1.506 1.506 0 0 0 12.511 24 1.485 1.485 0 0 0 14 22.541V19l.444-.001A1.557 1.557 0 0 0 16 17.442V8H4zm16 1.471a1.5 1.5 0 0 0-3 .001v6.106a1.502 1.502 0 0 0 3 0V9.471zm-17 0a1.5 1.5 0 0 0-3 .001v6.106A1.463 1.463 0 0 0 1.5 17 1.463 1.463 0 0 0 3 15.578V9.471zm9.951-7.312L13.891.3a.203.203 0 0 0-.163-.3.185.185 0 0 0-.164.105l-.949 1.878a6.172 6.172 0 0 0-5.229 0L6.436.105A.183.183 0 0 0 6.272 0a.203.203 0 0 0-.163.3l.94 1.859A5.345 5.345 0 0 0 4 6.999h12a5.345 5.345 0 0 0-3.049-4.84zM7.501 5A.5.5 0 1 1 8 4.5a.501.501 0 0 1-.499.5zm4.998 0A.5.5 0 1 1 13 4.5a.5.5 0 0 1-.501.5z" fill="#fff"/></svg>