<svg id="Layer_1" data-name="Layer 1" xmlns="http://www.w3.org/2000/svg" width="20" height="24" viewBox="0 0 20 24"><title>icon_button_android</title><path d="M6,8l0.001,9.444A1.5548,1.5548,0,0,0,7.558,19H8v3.542A1.5056,1.5056,0,0,0,9.51,24,1.4862,1.4862,0,0,0,11,22.541V19h2v3.542A1.5058,1.5058,0,0,0,14.511,24,1.4853,1.4853,0,0,0,16,22.541V19l0.444-.001A1.5567,1.5567,0,0,0,18,17.442V8H6ZM22,9.471a1.5,1.5,0,0,0-3,.001v6.106a1.5021,1.5021,0,0,0,3,0V9.471Zm-17,0a1.5,1.5,0,0,0-3,.001v6.106A1.4633,1.4633,0,0,0,3.5,17,1.4633,1.4633,0,0,0,5,15.578V9.471Zm9.951-7.312L15.891,0.3A0.2025,0.2025,0,0,0,15.728,0a0.1852,0.1852,0,0,0-.164.105L14.615,1.983a6.1717,6.1717,0,0,0-5.229,0L8.436,0.105A0.183,0.183,0,0,0,8.272,0a0.2025,0.2025,0,0,0-.163.3l0.94,1.859A5.3447,5.3447,0,0,0,6,6.999H18A5.3447,5.3447,0,0,0,14.951,2.159ZM9.501,5A0.5,0.5,0,1,1,10,4.5,0.501,0.501,0,0,1,9.501,5Zm4.998,0A0.5,0.5,0,1,1,15,4.5,0.4993,0.4993,0,0,1,14.499,5Z" transform="translate(-2 0)" fill="#fff"/></svg>