<svg id="Layer_1" data-name="Layer 1" xmlns="http://www.w3.org/2000/svg" viewBox="0 0 648 284.3354"><title>strips</title><polygon points="648 284.335 605.87 284.335 622.678 0 648 0 648 284.335" fill="#799900" fill-rule="evenodd"/><polygon points="605.87 284.335 594.484 284.335 611.292 0 622.956 0 605.87 284.335" fill="#f38b00" fill-rule="evenodd"/><polygon points="594.484 284.335 583.098 284.335 599.906 0 611.57 0 594.484 284.335" fill="#ef4046" fill-rule="evenodd"/><polygon points="583.098 284.335 571.713 284.335 588.52 0 600.184 0 583.098 284.335" fill="#5b87da" fill-rule="evenodd"/><polygon points="571.713 284.335 560.326 284.335 577.134 0 588.798 0 571.713 284.335" fill="#5b87da" fill-rule="evenodd"/><polygon points="560.326 284.335 548.94 284.335 565.748 0 577.412 0 560.326 284.335" fill="#fbd0d8" fill-rule="evenodd"/><polygon points="548.94 284.335 537.554 284.335 554.362 0 566.026 0 548.94 284.335" fill="#799900" fill-rule="evenodd"/><polygon points="537.554 284.335 526.169 284.335 542.976 0 554.64 0 537.554 284.335" fill="#799900" fill-rule="evenodd"/><polygon points="526.169 284.335 514.782 284.335 531.59 0 543.254 0 526.169 284.335" fill="#799900" fill-rule="evenodd"/><polygon points="514.782 284.335 503.396 284.335 520.204 0 531.868 0 514.782 284.335" fill="#ffce00" fill-rule="evenodd"/><polygon points="503.396 284.335 492.01 284.335 508.818 0 520.482 0 503.396 284.335" fill="#5b87da" fill-rule="evenodd"/><polygon points="492.01 284.335 480.624 284.335 497.432 0 509.096 0 492.01 284.335" fill="#7b2981" fill-rule="evenodd"/><polygon points="480.624 284.335 469.238 284.335 486.047 0 497.71 0 480.624 284.335" fill="#799900" fill-rule="evenodd"/><polygon points="469.238 284.335 457.852 284.335 474.661 0 486.324 0 469.238 284.335" fill="#7b2981" fill-rule="evenodd"/><polygon points="457.852 284.335 446.467 284.335 463.275 0 474.938 0 457.852 284.335" fill="#5b87da" fill-rule="evenodd"/><polygon points="446.467 284.335 435.08 284.335 451.889 0 463.552 0 446.467 284.335" fill="#ffce00" fill-rule="evenodd"/><polygon points="435.08 284.335 423.695 284.335 440.502 0 452.166 0 435.08 284.335" fill="#ffce00" fill-rule="evenodd"/><polygon points="423.695 284.335 412.309 284.335 429.116 0 440.78 0 423.695 284.335" fill="#799900" fill-rule="evenodd"/><polygon points="412.309 284.335 400.923 284.335 417.73 0 429.394 0 412.309 284.335" fill="#d9272e" fill-rule="evenodd"/><polygon points="400.923 284.335 389.537 284.335 406.344 0 418.009 0 400.923 284.335" fill="#f38b00" fill-rule="evenodd"/><polygon points="389.537 284.335 378.151 284.335 394.959 0 406.623 0 389.537 284.335" fill="#f38b00" fill-rule="evenodd"/><polygon points="378.151 284.335 366.764 284.335 383.572 0 395.236 0 378.151 284.335" fill="#ffce00" fill-rule="evenodd"/><polygon points="366.764 284.335 355.378 284.335 372.187 0 383.85 0 366.764 284.335" fill="#f38b00" fill-rule="evenodd"/><polygon points="355.378 284.335 343.993 284.335 360.801 0 372.464 0 355.378 284.335" fill="#7b2981" fill-rule="evenodd"/><polygon points="343.993 284.335 332.606 284.335 349.415 0 361.078 0 343.993 284.335" fill="#5b87da" fill-rule="evenodd"/><polygon points="332.606 284.335 321.22 284.335 338.028 0 349.692 0 332.606 284.335" fill="#ffce00" fill-rule="evenodd"/><polygon points="321.22 284.335 309.835 284.335 326.642 0 338.306 0 321.22 284.335" fill="#fada6b" fill-rule="evenodd"/><polygon points="309.835 284.335 298.45 284.335 315.257 0 326.921 0 309.835 284.335" fill="#d9272e" fill-rule="evenodd"/><polygon points="298.45 284.335 287.063 284.335 303.871 0 315.535 0 298.45 284.335" fill="#d9272e" fill-rule="evenodd"/><polygon points="287.063 284.335 275.676 284.335 292.485 0 304.149 0 287.063 284.335" fill="#ffce00" fill-rule="evenodd"/><polygon points="275.676 284.335 264.291 284.335 281.097 0 292.762 0 275.676 284.335" fill="#ffce00" fill-rule="evenodd"/><polygon points="264.291 284.335 252.905 284.335 269.713 0 281.377 0 264.291 284.335" fill="#fada6b" fill-rule="evenodd"/><polygon points="252.905 284.335 241.518 284.335 258.327 0 269.992 0 252.905 284.335" fill="#f38b00" fill-rule="evenodd"/><polygon points="241.518 284.335 230.134 284.335 246.941 0 258.603 0 241.518 284.335" fill="#f38b00" fill-rule="evenodd"/><polygon points="230.134 284.335 218.748 284.335 235.554 0 247.218 0 230.134 284.335" fill="#ffce00" fill-rule="evenodd"/><polygon points="218.748 284.335 207.36 284.335 224.17 0 235.833 0 218.748 284.335" fill="#ffce00" fill-rule="evenodd"/><polygon points="207.36 284.335 195.974 284.335 212.784 0 224.447 0 207.36 284.335" fill="#fada6b" fill-rule="evenodd"/><polygon points="195.974 284.335 184.589 284.335 201.398 0 213.06 0 195.974 284.335" fill="#5b87da" fill-rule="evenodd"/><polygon points="184.589 284.335 173.204 284.335 190.01 0 201.675 0 184.589 284.335" fill="#5b87da" fill-rule="evenodd"/><polygon points="173.204 284.335 161.817 284.335 178.625 0 190.29 0 173.204 284.335" fill="#7b2981" fill-rule="evenodd"/><polygon points="161.817 284.335 150.431 284.335 167.239 0 178.902 0 161.817 284.335" fill="#5b87da" fill-rule="evenodd"/><polygon points="150.431 284.335 139.046 284.335 155.852 0 167.516 0 150.431 284.335" fill="#f38b00" fill-rule="evenodd"/><polygon points="139.046 284.335 127.658 284.335 144.467 0 156.131 0 139.046 284.335" fill="#7b2981" fill-rule="evenodd"/><polygon points="127.658 284.335 116.272 284.335 133.082 0 144.746 0 127.658 284.335" fill="#799900" fill-rule="evenodd"/><polygon points="116.272 284.335 104.886 284.335 121.696 0 133.358 0 116.272 284.335" fill="#f38b00" fill-rule="evenodd"/><polygon points="104.886 284.335 93.502 284.335 110.308 0 121.972 0 104.886 284.335" fill="#fbd0d8" fill-rule="evenodd"/><polygon points="93.502 284.335 82.115 284.335 98.924 0 110.588 0 93.502 284.335" fill="#fada6b" fill-rule="evenodd"/><polygon points="82.115 284.335 70.729 284.335 87.538 0 99.2 0 82.115 284.335" fill="#5b87da" fill-rule="evenodd"/><polygon points="70.729 284.335 59.343 284.335 76.151 0 87.814 0 70.729 284.335" fill="#7b2981" fill-rule="evenodd"/><polygon points="59.343 284.335 47.959 284.335 64.765 0 76.428 0 59.343 284.335" fill="#d9272e" fill-rule="evenodd"/><polygon points="47.959 284.335 36.571 284.335 53.38 0 65.044 0 47.959 284.335" fill="#7b2981" fill-rule="evenodd"/><polygon points="36.571 284.335 25.184 284.335 41.994 0 53.657 0 36.571 284.335" fill="#7b2981" fill-rule="evenodd"/><polygon points="25.184 284.335 0 284.335 0 0 42.271 0 25.184 284.335" fill="#799900" fill-rule="evenodd"/></svg>