<svg id="Layer_1" xmlns="http://www.w3.org/2000/svg" viewBox="144 -220 512 512"><style>.st0{fill:#fff}</style><path id="pinterest-icon" class="st0" d="M409.7-170c-112.4 0-169.1 80.6-169.1 147.8 0 40.7 15.4 76.9 48.5 90.4 5.4 2.2 10.3.1 11.8-5.9 1.1-4.2 3.7-14.6 4.8-19 1.6-5.9 1-8-3.4-13.2-9.5-11.2-15.6-25.8-15.6-46.4 0-59.8 44.7-113.3 116.5-113.3 63.5 0 98.5 38.8 98.5 90.7 0 68.2-30.2 125.8-75 125.8-24.8 0-43.3-20.5-37.4-45.6 7.1-30 20.9-62.3 20.9-84 0-19.4-10.4-35.5-31.9-35.5-25.3 0-45.6 26.2-45.6 61.3 0 22.3 7.5 37.4 7.5 37.4s-25.9 109.7-30.4 129c-9 38.3-1.4 85.2-.7 89.9.4 2.8 4 3.5 5.6 1.4 2.3-3 32.5-40.3 42.7-77.4 2.9-10.5 16.6-65 16.6-65 8.2 15.7 32.3 29.5 57.8 29.5 76.1 0 127.7-69.4 127.7-162.2 0-70.3-59.5-135.7-149.8-135.7z"/></svg>