<svg id="Layer_1" xmlns="http://www.w3.org/2000/svg" viewBox="144 -220 512 512"><style>.st0{fill:#fff}</style><path id="twitter-icon" class="st0" d="M606-91.8c-15.2 6.7-31.4 11.3-48.5 13.3 17.4-10.5 30.9-27 37.2-46.8-16.3 9.7-34.4 16.7-53.7 20.5-15.4-16.4-37.4-26.7-61.7-26.7-54.6 0-94.7 50.9-82.3 103.8-70.2-3.5-132.5-37.2-174.2-88.3C200.7-78 211.3-28.3 249-3.2c-14-.3-27-4.1-38.4-10.5-.9 39.2 27.1 75.8 67.8 83.9-11.9 3.2-24.9 4-38.2 1.4 10.8 33.6 42 58 79 58.7-35.5 27.8-80.3 40.3-125.1 35 37.4 24 81.8 38 129.6 38 156.9 0 245.6-132.6 240.3-251.4 16.3-11.8 30.7-26.7 42-43.7z"/></svg>