<svg id="Layer_1" xmlns="http://www.w3.org/2000/svg" viewBox="0 0 24 24"><style>.st0{fill:#fff}</style><path class="st0" d="M5.8 4.5c-.6 1.4-.3 3.8-.2 5.5-.6.4-1.5-.3-2-.3s-1.1.3-1.2.8c-.1.3.1.9 1.2 1.3.4.2 1.5.4 1.7.9.3.8-1.7 4.4-4.9 4.9-.3 0-.4.3-.4.5.1 1 2.2 1.4 3.2 1.5.1.1.2.7.3 1.1.1.2.2.4.6.4.5 0 1.3-.4 2.7-.1 1.4.2 2.7 2.2 5.2 2.2 2.3 0 3.7-2 5.1-2.2.8-.1 1.4-.1 2.2.1.5.1 1 .2 1.1-.3.1-.4.2-1 .3-1.1 1-.1 3.2-.5 3.2-1.5 0-.3-.2-.5-.4-.5-3.2-.5-5.3-4.1-4.9-4.9.2-.6 1.3-.8 1.7-.9.8-.3 1.2-.7 1.2-1.2 0-.6-.7-.9-1.2-.9s-1.3.6-1.9.3c.1-1.7.3-4.1-.3-5.4C17 2 14.5.7 12 .7 9.5.7 7 2 5.8 4.5z"/></svg>