<svg id="Layer_1" xmlns="http://www.w3.org/2000/svg" viewBox="144 -220 512 512"><style>.st0{fill:#fff}</style><path class="st0" d="M606-78.7h-54.6V-24h-27.3v-54.6h-54.6V-106h54.6v-54.6h27.3v54.6H606v27.3zm-154.4 226c0 40.9-37.4 90.8-131.4 90.8-68.8 0-126.1-29.7-126.1-79.6C194 120 218.4 70 332.3 70c-16.9-13.8-21.1-33.1-10.7-54-66.7 0-100.9-39.2-100.9-89 0-48.7 36.2-93 110.1-93h118.4l-26.5 27.8h-31.1c21.9 12.6 33.6 38.4 33.6 66.9 0 26.2-14.4 47.4-35 63.3-36.5 28.2-27.2 44 11.1 71.9 37.8 28.2 50.3 50 50.3 83.4zM377.7-69.5c-5.5-41.9-32.8-76.3-64.7-77.2-31.9-.9-53.3 31.1-47.8 73S301-2.5 332.9-1.6c32 .9 50.3-26 44.8-67.9zm32.9 221c0-34.5-31.4-67.3-84.2-67.3-47.5-.5-87.8 30-87.8 65.5 0 36.2 34.3 66.2 81.9 66.2 60.8 0 90.1-28.3 90.1-64.4z" id="google-plus-icon"/></svg>