<svg id="Layer_1" data-name="Layer 1" xmlns="http://www.w3.org/2000/svg" viewBox="0 0 60 44"><title>ift_logo_NOTAG_mobile</title><path d="M10.7489,9.9576C10.7232,5.89,1.3984,3.6627,1.3984,3.6627s2.2292,9.3367,6.3977,9.3367h.745V11.9031H9.6393v1.0963H10.742c.0071-.012.0251,0,.0071-3.0417m-4.4-1.3487H5.2516V7.5115H6.349Zm.0016,1.102H7.4479v1.0927H6.3506V9.711Zm2.1926,2.191H7.4458V10.8038H8.5432V11.902Zm1.1-1.0982H8.5384V9.71H7.4467V8.6072H8.5384V9.71H9.6431v1.0939Z" fill="#5987c5"/><path d="M8.1481,39.91V17.4512s.2746-3.3143-2.5081-3.3143l.0011-.0027H.4923V43.2751H9.8582v-.1294c-.8619-.3963-1.71-1.2789-1.71-3.2357" fill="#231f20"/><path d="M17.27,14.1344v.0032c-3.0234,0-2.5965,3.5217-2.5965,3.5217v22.46a2.9142,2.9142,0,0,1-1.7429,3.0261v.13H22.4V31.9424H35.1764V26.44H22.4V19.6784l19.37.0331V43.2751l8.057.0049.0259-23.5989,9.8137.0183v-5.565Z" fill="#231f20"/><rect x="9.641" y="19.5905" width="1.0971" height="1.0976" fill="#78a12f"/><rect x="10.7408" y="16.2915" width="1.0966" height="1.096" fill="#78a12f"/><rect x="10.7342" y="20.6789" width="1.1026" height="1.0966" fill="#5987c5"/><rect x="11.8368" y="25.075" width="1.0955" height="1.089" fill="#78a12f"/><path d="M10.7375,9.2929v3.7065h1.0982v-1.098h1.0966v1.098h1.3258c5.0467,0,9.005-12.4577,9.005-12.4577S10.7375,3.4264,10.7375,9.2929m3.29,2.61H12.9339V10.807h1.0938v1.096Zm1.1-1.1H14.0255V9.7077h-1.092v1.0982H11.8366V9.7072h1.0966V8.6111h1.0933V9.705h1.1015v1.0982Zm1.096-2.1959H15.1265V7.5108h1.0976V8.6074Z" fill="#78a12f"/><rect x="10.7342" y="13.0029" width="1.1064" height="1.0927" fill="#5987c5"/><rect x="9.6432" y="32.7548" width="1.0927" height="1.09" fill="#5987c5"/><rect x="10.7342" y="10.8087" width="1.1031" height="1.0944" fill="#5987c5"/><rect x="9.6432" y="10.8071" width="1.0916" height="1.096" fill="#78a12f"/><path d="M53.0182,43.0117a1.0031,1.0031,0,1,1,.2934-.711A.9642.9642,0,0,1,53.0182,43.0117ZM51.7,41.6922a.8341.8341,0,0,0-.2511.61.8434.8434,0,0,0,.25.6141.86.86,0,0,0,1.216.0039l.0039-.0039a.8714.8714,0,0,0,0-1.2241.8582.8582,0,0,0-1.2137-.0049Zm.5895.0559a.837.837,0,0,1,.3.04.273.273,0,0,1,.17.2787.2406.2406,0,0,1-.1072.2172.4188.4188,0,0,1-.1591.0533.2664.2664,0,0,1,.1888.1078.3016.3016,0,0,1,.06.17v.08c0,.0254.0008.0527.0027.0816a.1771.1771,0,0,0,.01.0573l.0068.0136H52.58l-.0027-.0109-.0027-.0123L52.57,42.79v-.0873a.2686.2686,0,0,0-.1037-.2516.4635.4635,0,0,0-.2156-.0355h-.1527v.4326h-.1938v-1.1Zm.2093.1733a.5051.5051,0,0,0-.2347-.0409h-.1656v.3984h.1752a.5278.5278,0,0,0,.1848-.0246.1981.1981,0,0,0,.04-.3329Z" fill="#231f20"/></svg>