<svg id="Layer_1" data-name="Layer 1" xmlns="http://www.w3.org/2000/svg" viewBox="0 0 122 90"><title>Artboard 1</title><path d="M16.59,81.1305V35.4171s.5285-6.7381-5.0866-6.7381H1V88.0007H20.0913v-.2642c-1.7836-.8588-3.5012-2.6424-3.5012-6.606" fill="#fff"/><path d="M35.1529,28.6791h0c-6.1436,0-5.2848,7.2005-5.2848,7.2005V81.5929c0,3.7654-1.7836,5.4169-3.5672,6.1436v.2642H45.59V64.88H71.6179V53.65H45.59V39.91H85.0281V87.8686h16.3828l.0661-47.8933h19.95V28.6791Z" fill="#fff"/><path d="M107.8847,87.4062a2.0553,2.0553,0,1,1,0-2.9067,2.0479,2.0479,0,0,1,0,2.9067Zm-2.6424-2.6424a1.6914,1.6914,0,0,0-.5285,1.2551,1.8048,1.8048,0,0,0,.5285,1.2551,1.6914,1.6914,0,0,0,1.2551.5285,1.7751,1.7751,0,0,0,1.2551-3.0387,1.7547,1.7547,0,0,0-2.4814-.0288Zm1.1891.0661a1.4662,1.4662,0,0,1,.5945.0661.4925.4925,0,0,1,.33.5945.6.6,0,0,1-.1982.4624,1.6949,1.6949,0,0,1-.33.1321.5646.5646,0,0,1,.3964.1982,1.1157,1.1157,0,0,1,.1321.33v.4624H106.96v-.2639a.5692.5692,0,0,0-.1982-.5285.7293.7293,0,0,0-.4624-.0661h-.33v.8588h-.3964V84.83h.8584Zm.3964.3964a.8491.8491,0,0,0-.4624-.0661h-.33v.7927h.33a.7152.7152,0,0,0,.3964-.0661.3633.3633,0,0,0,.1982-.33.2235.2235,0,0,0-.1322-.3306Z" fill="#fff"/><rect x="20.6858" y="66.5974" width="2.1139" height="2.1139" fill="#fff"/><rect x="18.638" y="39.9092" width="2.1139" height="2.1139" fill="#fff"/><rect x="20.7519" y="33.039" width="2.1139" height="2.1139" fill="#fff"/><rect x="20.6858" y="42.0231" width="2.1139" height="2.1139" fill="#fff"/><rect x="24.8476" y="51.0073" width="2.1139" height="2.1139" fill="#fff"/><rect x="22.7997" y="26.367" width="2.1139" height="2.1139" fill="#fff"/><path d="M21.8749,18.638l.0661.9909C20.62,11.5035,2.85,7.3417,2.85,7.3417S7.4078,26.3009,15.8635,26.3009H18.638V24.187h2.0479v2.1139h2.18V24.187h2.0479v2.1139h4.03C39.3807,26.3009,47.374,1,47.374,1c-1.3212.3964-23.7155,5.549-25.367,16.581m2.9066.33h2.1139v2.18H24.9136Zm-10.57-.0661H12.23V15.7313h2.1139v2.1139Zm.0661,2.18h2.1139v2.0479H14.41V20.0252Zm2.1139,4.1618V22.1391H18.638V20.0913H16.59v-2.18h2.114v2.1139h2.1139v2.1139H18.77V24.253H16.524v-.066Zm10.5035,0H24.9136V22.1391H22.8658V24.187h-2.18V22.1391h2.18V20.0913H24.98v2.0479h2.0479V24.187Zm2.1139-2.0479H27.0276V20.0252h2.1139v2.1139Zm2.0479-4.2278H29.0754V15.7974h2.1139v2.1139Z" fill="#fff"/></svg>