<svg id="Layer_1" data-name="Layer 1" xmlns="http://www.w3.org/2000/svg" width="199.6717" height="1016.3726" viewBox="0 0 199.6717 1016.3726"><title>pixelsRaster_white</title><polygon id="Fill-30" points="49.557 1016.373 100.873 1016.373 100.873 964.959 49.557 964.959 49.557 1016.373" fill="#fff"/><polygon id="Fill-31" points="0 374.429 50.122 374.429 50.122 324.457 0 324.457 0 374.429" fill="#fff"/><polygon id="Fill-32" points="50.122 210.712 100.291 210.712 100.291 160.787 50.122 160.787 50.122 210.712" fill="#fff"/><polygon id="Fill-33" points="49.274 425.216 99.443 425.216 99.443 375.259 49.274 375.259 49.274 425.216" fill="#fff"/><polygon id="Fill-34" points="149.518 640.957 199.672 640.957 199.672 590.859 149.518 590.859 149.518 640.957" fill="#fff"/><polygon id="Fill-35" points="100.291 50.003 150.461 50.003 150.461 0 100.291 0 100.291 50.003" fill="#fff"/></svg>