<?xml version="1.0" encoding="utf-8"?>
<!-- Generator: Adobe Illustrator 19.0.1, SVG Export Plug-In . SVG Version: 6.00 Build 0)  -->
<svg version="1.1" id="Layer_1" xmlns="http://www.w3.org/2000/svg" xmlns:xlink="http://www.w3.org/1999/xlink" x="0px" y="0px"
	 viewBox="144 -220 512 512" style="enable-background:new 144 -220 512 512;" xml:space="preserve">
<style type="text/css">
	.st0{fill:#FFFFFF;}
</style>
<path id="pinterest-icon" class="st0" d="M409.7-170c-112.4,0-169.1,80.6-169.1,147.8c0,40.7,15.4,76.9,48.5,90.4
	c5.4,2.2,10.3,0.1,11.8-5.9c1.1-4.2,3.7-14.6,4.8-19c1.6-5.9,1-8-3.4-13.2c-9.5-11.2-15.6-25.8-15.6-46.4
	c0-59.8,44.7-113.3,116.5-113.3c63.5,0,98.5,38.8,98.5,90.7c0,68.2-30.2,125.8-75,125.8c-24.8,0-43.3-20.5-37.4-45.6
	c7.1-30,20.9-62.3,20.9-84c0-19.4-10.4-35.5-31.9-35.5c-25.3,0-45.6,26.2-45.6,61.3c0,22.3,7.5,37.4,7.5,37.4s-25.9,109.7-30.4,129
	c-9,38.3-1.4,85.2-0.7,89.9c0.4,2.8,4,3.5,5.6,1.4c2.3-3,32.5-40.3,42.7-77.4c2.9-10.5,16.6-65,16.6-65
	c8.2,15.7,32.3,29.5,57.8,29.5c76.1,0,127.7-69.4,127.7-162.2C559.5-104.6,500-170,409.7-170z"/>
</svg>
