<?xml version="1.0" encoding="utf-8"?>
<!-- Generator: Adobe Illustrator 19.0.1, SVG Export Plug-In . SVG Version: 6.00 Build 0)  -->
<svg version="1.1" id="Layer_1" xmlns="http://www.w3.org/2000/svg" xmlns:xlink="http://www.w3.org/1999/xlink" x="0px" y="0px"
	 viewBox="144 -220 512 512" style="enable-background:new 144 -220 512 512;" xml:space="preserve">
<style type="text/css">
	.st0{fill:#FFFFFF;}
</style>
<g id="google-plus-icon">
	<path class="st0" d="M606-78.7h-54.6V-24h-27.3v-54.6h-54.6V-106h54.6v-54.6h27.3v54.6H606V-78.7z M451.6,147.3
		c0,40.9-37.4,90.8-131.4,90.8c-68.8,0-126.1-29.7-126.1-79.6C194,120,218.4,70,332.3,70c-16.9-13.8-21.1-33.1-10.7-54
		c-66.7,0-100.9-39.2-100.9-89c0-48.7,36.2-93,110.1-93c18.7,0,118.4,0,118.4,0l-26.5,27.8h-31.1c21.9,12.6,33.6,38.4,33.6,66.9
		c0,26.2-14.4,47.4-35,63.3c-36.5,28.2-27.2,44,11.1,71.9C439.1,92.1,451.6,113.9,451.6,147.3z M377.7-69.5
		c-5.5-41.9-32.8-76.3-64.7-77.2c-31.9-0.9-53.3,31.1-47.8,73c5.5,41.9,35.8,71.2,67.7,72.1C364.9-0.7,383.2-27.6,377.7-69.5z
		 M410.6,151.5c0-34.5-31.4-67.3-84.2-67.3c-47.5-0.5-87.8,30-87.8,65.5c0,36.2,34.3,66.2,81.9,66.2
		C381.3,215.9,410.6,187.6,410.6,151.5z"/>
</g>
</svg>
