<?xml version="1.0" encoding="utf-8"?>
<!-- Generator: Adobe Illustrator 19.2.0, SVG Export Plug-In . SVG Version: 6.00 Build 0)  -->
<svg version="1.1" id="Layer_1" xmlns="http://www.w3.org/2000/svg" xmlns:xlink="http://www.w3.org/1999/xlink" x="0px" y="0px"
	 viewBox="0 0 512 512" style="enable-background:new 0 0 512 512;" xml:space="preserve">
<style type="text/css">
	.st0{fill:#FFFFFF;}
</style>
<path id="linkedin-icon" class="st0" d="M150.7,100.7c0,28-22.5,50.7-50.3,50.7s-50.3-22.7-50.3-50.7S72.6,50,100.4,50
	S150.7,72.7,150.7,100.7z M143.4,187.3h-85V462h85V187.3z M279.3,187.3h-81.5V462h81.5c0,0,0-101.9,0-144.2
	c0-38.6,17.8-61.6,51.8-61.6c31.3,0,46.3,22.1,46.3,61.6s0,144.2,0,144.2H462c0,0,0-100.3,0-173.9S420.3,179,362.1,179
	s-82.8,45.3-82.8,45.3V187.3L279.3,187.3z"/>
</svg>
