<svg data-name="Layer 1" xmlns="http://www.w3.org/2000/svg" viewBox="0 0 253.2193 226.4141"><title>ift_process_tag</title><path d="M9.517 168.783a8.894 8.894 0 0 1 3.652.77l-.352 2.435a7.603 7.603 0 0 0-3.493-.865c-1.89 0-2.98 1.089-3.332 3.364l-.32 1.955h3.012l-.32 2.435H5.319L2.628 196.82H0l2.66-17.944H.353l.352-2.435h2.34l.288-1.73c.705-4.038 2.403-5.929 6.184-5.929z" fill="#231f20"/><path d="M19.952 189.58a8.871 8.871 0 0 1-4.903 1.634c-3.653 0-6.216-2.852-6.216-6.825 0-4.84 2.98-8.3 6.985-8.3 3.3 0 5.16 1.987 5.16 5.672v1.635h-9.134l-.064.96v.353c0 2.436 1.602 4.134 3.525 4.134 1.635 0 3.204-.737 5.095-2.179zm-1.57-8.203v-.385a2.402 2.402 0 0 0-2.5-2.66c-1.826 0-2.948.962-3.589 3.045h6.089zM34.044 189.58a8.871 8.871 0 0 1-4.903 1.634c-3.653 0-6.217-2.852-6.217-6.825 0-4.84 2.98-8.3 6.986-8.3 3.3 0 5.159 1.987 5.159 5.672v1.635h-9.133l-.064.96v.353c0 2.436 1.602 4.134 3.525 4.134 1.634 0 3.204-.737 5.095-2.179zm-1.57-8.203v-.385a2.402 2.402 0 0 0-2.5-2.66c-1.826 0-2.948.962-3.589 3.045h6.088zM44.46 191.182c-4.807 0-7.563-2.499-7.563-6.312a8.649 8.649 0 0 1 3.75-7.05 10.205 10.205 0 0 1 6.312-1.762h.64l1.026-7.05h2.788l-3.268 21.918c-1.602.16-2.82.256-3.686.256zm2.69-12.688c-.223 0-.447-.033-.672-.033-4.101 0-6.697 2.596-6.697 6.024a4.154 4.154 0 0 0 4.39 4.39 6.193 6.193 0 0 0 1.507-.16zM51.645 190.894l2.116-14.452h2.787l-2.114 14.452h-2.788zm4.134-20.444a1.506 1.506 0 1 1-1.538 1.506 1.504 1.504 0 0 1 1.538-1.506zM60.202 176.442h2.788l-.353 2.307c1.763-1.763 3.429-2.66 5.127-2.66 2.18 0 3.429 1.442 3.429 3.973a14.7 14.7 0 0 1-.192 2.211l-1.282 8.62h-2.788l1.314-9.324a11.773 11.773 0 0 0 .128-1.442 1.5 1.5 0 0 0-1.666-1.699c-1.314 0-2.788.961-4.358 2.916l-1.538 9.55h-2.788zM73.217 189.003c0-1.121.897-2.083 2.628-2.724a4.344 4.344 0 0 1-2.34-4.166c0-3.524 2.371-5.67 6.825-5.67h5.608l-.32 2.21H83.15a4.168 4.168 0 0 1 1.058 2.82 5.386 5.386 0 0 1-3.333 5.062 12.614 12.614 0 0 1-2.98.77c-1.281.225-1.954.513-1.954 1.09 0 1.121 1.602 1.089 4.037 1.89 2.532.802 3.813 1.763 3.813 3.718 0 2.338-2.179 4.165-6.056 4.165-3.941 0-6.153-1.634-6.153-3.59 0-1.473 1.379-2.658 3.974-3.14-1.57-.705-2.34-1.345-2.34-2.435zm.993 5.287c0 1.058 1.218 1.795 3.429 1.795 2.179 0 3.364-.673 3.364-1.73 0-.962-.993-1.57-3.044-2.147-2.499.704-3.749 1.185-3.749 2.082zm4.422-9.42a3.043 3.043 0 0 0 2.852-3.3 2.542 2.542 0 0 0-2.531-2.82 2.979 2.979 0 0 0-2.884 3.268 2.667 2.667 0 0 0 2.563 2.851zM98.79 186.792a1.581 1.581 0 0 0 1.795 1.794 4.902 4.902 0 0 0 2.435-.833v2.532a7.503 7.503 0 0 1-3.268.929 3.7 3.7 0 0 1-3.91-3.91 13.243 13.243 0 0 1 .352-2.595l1.282-6.216h-2.435l.449-2.05h2.467l.705-3.045h2.852l-.673 3.044h2.852l-.48 2.051h-2.852l-1.314 6.28a11.483 11.483 0 0 0-.257 2.02zM108.037 169.008h2.756l-1.442 9.709c1.794-1.762 3.46-2.627 5.158-2.627 2.18 0 3.429 1.409 3.429 3.941a15.436 15.436 0 0 1-.192 2.211l-1.282 8.652h-2.787l1.185-8.011a23.32 23.32 0 0 0 .32-2.692 1.535 1.535 0 0 0-1.634-1.827c-1.314 0-2.82 1.058-4.614 3.14l-1.378 9.39h-2.788zM131.065 189.58a8.871 8.871 0 0 1-4.903 1.634c-3.653 0-6.216-2.852-6.216-6.825 0-4.84 2.98-8.3 6.985-8.3 3.3 0 5.16 1.987 5.16 5.672v1.635h-9.134l-.063.96v.353c0 2.436 1.602 4.134 3.524 4.134 1.635 0 3.205-.737 5.095-2.179zm-1.57-8.203v-.385a2.402 2.402 0 0 0-2.5-2.66c-1.826 0-2.948.962-3.589 3.045h6.088zM144.334 176.442h2.788l-.32 2.019a6.93 6.93 0 0 1 4.806-2.372 3.155 3.155 0 0 1 3.365 2.788c1.922-1.827 3.557-2.788 5.415-2.788 2.18 0 3.396 1.346 3.396 3.877a15.903 15.903 0 0 1-.224 2.276l-1.282 8.651h-2.787l1.377-9.356a9.352 9.352 0 0 0 .129-1.442 1.5 1.5 0 0 0-1.666-1.698c-1.315 0-2.788.96-4.359 2.916l-1.409 9.58h-2.756l1.377-9.356a9.352 9.352 0 0 0 .129-1.442 1.5 1.5 0 0 0-1.666-1.699c-1.315 0-2.789.961-4.359 2.917l-1.346 9.58h-2.788zM165.726 190.894l2.115-14.452h2.788l-2.115 14.452h-2.788zm4.134-20.444a1.506 1.506 0 1 1-1.538 1.506 1.504 1.504 0 0 1 1.538-1.506zM174.283 176.442h2.788l-.354 2.307c1.764-1.763 3.43-2.66 5.127-2.66 2.18 0 3.43 1.442 3.43 3.973a14.766 14.766 0 0 1-.192 2.211l-1.282 8.62h-2.787l1.313-9.324a11.663 11.663 0 0 0 .128-1.442 1.5 1.5 0 0 0-1.666-1.699c-1.314 0-2.788.961-4.357 2.916l-1.54 9.55h-2.787zM194.74 191.182c-4.806 0-7.56-2.499-7.56-6.312a8.648 8.648 0 0 1 3.748-7.05 10.206 10.206 0 0 1 6.313-1.762h.64l1.026-7.05h2.788l-3.269 21.918c-1.601.16-2.82.256-3.685.256zm2.693-12.688c-.224 0-.448-.033-.673-.033-4.101 0-6.697 2.596-6.697 6.024a4.154 4.154 0 0 0 4.39 4.39 6.199 6.199 0 0 0 1.507-.16zM202.159 186.504c1.761 1.41 3.107 2.179 4.39 2.179a1.708 1.708 0 0 0 1.954-1.474c0-1.025-1.026-1.73-2.627-2.853-1.955-1.377-3.14-2.274-3.14-4.293 0-2.275 1.73-3.942 4.614-3.942a7.49 7.49 0 0 1 4.582 1.507l-.224 2.916a7.579 7.579 0 0 0-4.487-1.955 1.445 1.445 0 0 0-1.698 1.282c0 1.121 1.346 1.666 3.429 3.236 1.601 1.217 2.403 2.243 2.403 3.942 0 2.37-1.89 4.133-4.71 4.133a8.3 8.3 0 0 1-5.16-1.987zM31.894 216.385a1.582 1.582 0 0 0 1.794 1.795 4.909 4.909 0 0 0 2.436-.834v2.532a7.509 7.509 0 0 1-3.269.929 3.7 3.7 0 0 1-3.91-3.91 13.242 13.242 0 0 1 .353-2.595l1.282-6.216h-2.435l.448-2.05h2.468l.704-3.046h2.852l-.673 3.045h2.853l-.481 2.05h-2.852l-1.314 6.28a11.49 11.49 0 0 0-.256 2.02zM41.14 198.6h2.755l-1.441 9.71c1.794-1.762 3.46-2.627 5.158-2.627 2.18 0 3.429 1.409 3.429 3.941a15.484 15.484 0 0 1-.192 2.211l-1.282 8.651h-2.788l1.186-8.01a23.38 23.38 0 0 0 .32-2.692 1.536 1.536 0 0 0-1.634-1.827c-1.314 0-2.82 1.058-4.614 3.14l-1.378 9.39h-2.788zM61.438 220.486l.256-1.795a4.72 4.72 0 0 1-3.813 2.083c-2.724 0-4.902-2.37-4.902-5.8a9.118 9.118 0 0 1 1.858-5.48c2.019-2.659 4.454-3.46 8.075-3.46h3.365l-2.115 14.452h-2.724zm1.762-12.08a5.642 5.642 0 0 0-.737-.032 6.143 6.143 0 0 0-6.505 6.313c0 2.306 1.154 3.78 2.788 3.78 1.282 0 2.403-.832 3.365-2.435zM71.678 216.385a1.582 1.582 0 0 0 1.794 1.795 4.908 4.908 0 0 0 2.436-.834v2.532a7.508 7.508 0 0 1-3.269.929 3.7 3.7 0 0 1-3.909-3.91 13.249 13.249 0 0 1 .352-2.595l1.282-6.216h-2.435l.449-2.05h2.467l.704-3.046h2.852l-.672 3.045h2.852l-.481 2.05h-2.852l-1.314 6.28a11.481 11.481 0 0 0-.256 2.02zM94.976 198.376a8.894 8.894 0 0 1 3.653.77l-.353 2.435a7.605 7.605 0 0 0-3.492-.865c-1.89 0-2.98 1.089-3.333 3.364l-.32 1.955h3.012l-.32 2.435H90.78l-2.692 17.944h-2.628l2.66-17.944h-2.308l.353-2.435h2.34l.287-1.73c.706-4.038 2.404-5.929 6.185-5.929z" fill="#231f20"/><path d="M105.41 219.173a8.87 8.87 0 0 1-4.902 1.634c-3.653 0-6.216-2.852-6.216-6.826 0-4.838 2.98-8.298 6.985-8.298 3.3 0 5.16 1.986 5.16 5.67v1.635h-9.134l-.064.961v.353c0 2.436 1.602 4.134 3.525 4.134 1.635 0 3.204-.737 5.095-2.179zm-1.57-8.203v-.385a2.401 2.401 0 0 0-2.5-2.66c-1.825 0-2.947.962-3.588 3.045h6.088zM119.502 219.173a8.87 8.87 0 0 1-4.903 1.634c-3.653 0-6.216-2.852-6.216-6.826 0-4.838 2.98-8.298 6.985-8.298 3.3 0 5.16 1.986 5.16 5.67v1.635h-9.133l-.064.961v.353c0 2.436 1.602 4.134 3.524 4.134 1.635 0 3.205-.737 5.095-2.179zm-1.57-8.203v-.385a2.401 2.401 0 0 0-2.5-2.66c-1.826 0-2.948.962-3.589 3.045h6.089zM129.918 220.774c-4.806 0-7.562-2.499-7.562-6.312a8.651 8.651 0 0 1 3.75-7.05 10.212 10.212 0 0 1 6.312-1.762h.641l1.026-7.05h2.787l-3.268 21.918c-1.603.16-2.82.256-3.686.256zm2.692-12.688c-.225 0-.448-.032-.673-.032-4.102 0-6.697 2.595-6.697 6.024a4.154 4.154 0 0 0 4.39 4.39 6.196 6.196 0 0 0 1.507-.16zM148.86 216.385a1.582 1.582 0 0 0 1.794 1.795 4.909 4.909 0 0 0 2.435-.834v2.532a7.508 7.508 0 0 1-3.268.929 3.7 3.7 0 0 1-3.91-3.91 13.207 13.207 0 0 1 .353-2.595l1.281-6.216h-2.435l.45-2.05h2.466l.705-3.046h2.852l-.672 3.045h2.851l-.48 2.05h-2.851l-1.315 6.28a11.483 11.483 0 0 0-.256 2.02zM158.105 198.6h2.756l-1.443 9.71c1.795-1.762 3.461-2.627 5.16-2.627 2.178 0 3.428 1.409 3.428 3.941a15.508 15.508 0 0 1-.192 2.211l-1.281 8.651h-2.788l1.185-8.01a23.32 23.32 0 0 0 .32-2.692 1.536 1.536 0 0 0-1.634-1.827c-1.313 0-2.819 1.058-4.614 3.14l-1.378 9.39h-2.787zM181.133 219.173a8.867 8.867 0 0 1-4.902 1.634c-3.652 0-6.217-2.852-6.217-6.826 0-4.838 2.98-8.298 6.986-8.298 3.3 0 5.159 1.986 5.159 5.67v1.635h-9.132l-.065.961v.353c0 2.436 1.603 4.134 3.525 4.134 1.634 0 3.205-.737 5.095-2.179zm-1.57-8.203v-.385a2.4 2.4 0 0 0-2.499-2.66c-1.826 0-2.948.962-3.589 3.045h6.088zM192.223 220.486l-3.012-14.45h2.724l1.763 8.97 4.71-8.97h1.347l1.921 8.97 4.582-8.97h2.756l-7.53 14.45H200.3l-2.019-9.196-4.71 9.196h-1.346zM215.493 205.714c3.556 0 5.736 2.468 5.736 6.473 0 4.998-3.076 8.587-7.146 8.587-3.365 0-5.511-2.37-5.511-6.44 0-4.999 3.3-8.62 6.92-8.62zm-3.973 8.845c0 2.53 1.089 3.972 2.691 3.972 2.276 0 4.102-2.531 4.102-6.633 0-2.499-1.025-3.877-2.725-3.877-2.114 0-4.068 2.82-4.068 6.538zM222.734 220.486l2.147-14.45h2.692l-.385 2.723c1.281-1.987 2.275-2.948 3.781-2.948a3.452 3.452 0 0 1 1.217.255l-.704 2.596a3.67 3.67 0 0 0-.802-.096c-1.666 0-2.883 1.218-4.037 3.75l-1.218 8.17h-2.691zM238.44 198.6l-3.3 21.886h-2.852l3.3-21.885h2.852zM246.265 220.774c-4.806 0-7.562-2.499-7.562-6.312a8.65 8.65 0 0 1 3.749-7.05 10.215 10.215 0 0 1 6.312-1.762h.64l1.026-7.05h2.79l-3.27 21.918c-1.602.16-2.82.256-3.685.256zm2.692-12.688c-.224 0-.449-.032-.673-.032-4.102 0-6.698 2.595-6.698 6.024a4.155 4.155 0 0 0 4.391 4.39 6.196 6.196 0 0 0 1.506-.16z" fill="#231f20"/><path d="M64.063 33.693c-.092-14.556-33.459-22.525-33.459-22.525s7.977 33.41 22.893 33.41h2.666v-3.924h3.93v3.924h3.945c.025-.043.09 0 .025-10.885m-15.744-4.826h-3.926v-3.926h3.926v3.926zm.006 3.944h3.925v3.91h-3.925v-3.91zm7.845 7.84h-3.925v-3.93h3.925v3.93zm3.936-3.93h-3.953v-3.914h-3.906V28.86h3.906v3.946h3.953v3.914z" fill="#5987c5"/><path d="M54.757 140.871V60.508s.982-11.86-8.975-11.86l.004-.01H27.362v104.274h33.514v-.463c-3.084-1.418-6.12-4.576-6.12-11.578M87.397 48.639v.011c-10.819 0-9.291 12.602-9.291 12.602v80.367c0 6.617-3.112 9.553-6.237 10.828v.465h33.883v-40.55h45.719V92.67h-45.719V68.477l69.313.119v84.316l28.83.018.093-84.443 35.116.066V48.639H87.397z" fill="#231f20"/><path fill="#78a12f" d="M60.098 68.162h3.926v3.928h-3.926zM64.034 56.357h3.924v3.922h-3.924z"/><path fill="#5987c5" d="M64.01 72.057h3.945v3.924H64.01z"/><path fill="#78a12f" d="M67.956 87.787h3.92v3.897h-3.92zM64.022 31.314v13.264h3.93v-3.93h3.924v3.93h4.744C94.678 44.578 108.842 0 108.842 0s-44.82 10.322-44.82 31.314m11.774 9.34h-3.914v-3.922h3.914v3.922zm3.937-3.935h-3.945v-3.92h-3.909v3.93h-3.923v-3.932h3.923v-3.922h3.912v3.914h3.942v3.93zm3.922-7.858h-3.928v-3.924h3.927v3.924z"/><path fill="#5987c5" d="M64.01 44.59h3.959v3.91H64.01zM60.106 115.268h3.91v3.9h-3.91zM64.01 36.738h3.947v3.916H64.01z"/><path fill="#78a12f" d="M60.106 36.732h3.906v3.922h-3.906z"/><path d="M215.314 151.97a3.59 3.59 0 1 1 1.05-2.544 3.45 3.45 0 0 1-1.05 2.544zm-4.717-4.722a2.985 2.985 0 0 0-.898 2.183 3.018 3.018 0 0 0 .893 2.197 3.077 3.077 0 0 0 4.365 0 3.118 3.118 0 0 0 0-4.38 3.07 3.07 0 0 0-4.36 0zm2.11.2a2.995 2.995 0 0 1 1.074.142.977.977 0 0 1 .61.997.86.86 0 0 1-.384.777 1.498 1.498 0 0 1-.57.19.953.953 0 0 1 .676.386 1.08 1.08 0 0 1 .214.61v.288c0 .09.003.188.01.292a.634.634 0 0 0 .035.205l.024.049h-.65l-.01-.04-.01-.043-.014-.126v-.312a.961.961 0 0 0-.371-.9 1.658 1.658 0 0 0-.772-.127h-.546v1.548h-.693v-3.936h1.377zm.749.62a1.808 1.808 0 0 0-.84-.146h-.593v1.425h.627a1.888 1.888 0 0 0 .661-.087.709.709 0 0 0 .145-1.192z" fill="#231f20"/></svg>