<svg data-name="Layer 1" xmlns="http://www.w3.org/2000/svg" viewBox="0 0 60 44"><title>ift_logo_NOTAG_mobile</title><path d="M10.749 9.958c-.026-4.068-9.35-6.295-9.35-6.295s2.229 9.336 6.397 9.336h.745v-1.096H9.64V13h1.103c.007-.012.025 0 .007-3.041m-4.4-1.349H5.252V7.511h1.097zm.002 1.102h1.097v1.093H6.35V9.71zm2.192 2.191H7.446v-1.098h1.097v1.098zm1.1-1.098H8.538V9.71H7.447V8.607h1.091V9.71h1.105v1.094z" fill="#5987c5"/><path d="M8.148 39.91V17.451s.275-3.314-2.508-3.314l.001-.003H.492v29.141h9.366v-.13c-.862-.396-1.71-1.278-1.71-3.235M17.27 14.134v.004c-3.023 0-2.596 3.521-2.596 3.521v22.46a2.914 2.914 0 0 1-1.743 3.026v.13H22.4V31.942h12.776V26.44H22.4v-6.762l19.37.033v23.564l8.057.005.026-23.599 9.814.018v-5.565z" fill="#231f20"/><path fill="#78a12f" d="M9.641 19.59h1.097v1.098H9.641zM10.741 16.291h1.097v1.096h-1.097z"/><path fill="#5987c5" d="M10.734 20.679h1.103v1.097h-1.103z"/><path fill="#78a12f" d="M11.837 25.075h1.095v1.089h-1.095zM10.738 9.293v3.706h1.098v-1.098h1.096V13h1.326C19.305 13 23.263.542 23.263.542s-12.526 2.884-12.526 8.75m3.29 2.61h-1.093v-1.095h1.094v1.096zm1.1-1.1h-1.102V9.709h-1.092v1.098h-1.096V9.707h1.096V8.611h1.094v1.094h1.101v1.098zm1.096-2.195h-1.096V7.511h1.097v1.096z"/><path fill="#5987c5" d="M10.734 13.003h1.106v1.093h-1.106zM9.643 32.755h1.093v1.09H9.643zM10.734 10.809h1.103v1.094h-1.103z"/><path fill="#78a12f" d="M9.643 10.807h1.092v1.096H9.643z"/><path d="M53.018 43.012a1.003 1.003 0 1 1 .294-.711.964.964 0 0 1-.294.71zm-1.318-1.32a.834.834 0 0 0-.251.61.843.843 0 0 0 .25.614.86.86 0 0 0 1.216.004l.004-.004a.871.871 0 0 0 0-1.224.858.858 0 0 0-1.214-.005zm.59.056a.837.837 0 0 1 .3.04.273.273 0 0 1 .17.279.24.24 0 0 1-.108.217.419.419 0 0 1-.159.053.266.266 0 0 1 .189.108.302.302 0 0 1 .06.17v.08c0 .025 0 .053.003.082a.177.177 0 0 0 .01.057l.006.014h-.181l-.003-.011-.002-.013-.005-.034v-.087a.269.269 0 0 0-.104-.252.464.464 0 0 0-.215-.035h-.153v.432h-.194v-1.1zm.209.173a.505.505 0 0 0-.235-.04H52.1v.398h.175a.528.528 0 0 0 .185-.025.198.198 0 0 0 .04-.333z" fill="#231f20"/></svg>