<svg data-name="Layer 1" xmlns="http://www.w3.org/2000/svg" viewBox="0 0 88 64"><title>ift_process_tag_vectorNO_TAG_mobile</title><path d="M15.622 14.306c-.038-6-13.793-9.285-13.793-9.285s3.288 13.773 9.437 13.773h1.1v-1.618h1.62v1.618h1.626c.01-.018.037 0 .01-4.487m-6.49-1.99h-1.62v-1.619h1.62zm.002 1.625h1.618v1.612H9.134v-1.611zm3.234 3.232H10.75v-1.62h1.619v1.62zm1.623-1.62h-1.63v-1.613h-1.61v-1.627h1.61v1.627h1.63v1.613z" fill="#5987c5"/><path d="M11.786 58.49V25.36s.405-4.889-3.7-4.889l.001-.004H.492v42.987h13.816v-.19c-1.271-.585-2.522-1.887-2.522-4.774M25.242 20.468v.005c-4.46 0-3.83 5.195-3.83 5.195v33.13c0 2.729-1.283 3.939-2.571 4.465v.191h13.968V46.737h18.847V38.62H32.81v-9.974l28.574.049v34.76l11.885.007.038-34.812 14.477.027v-8.21z" fill="#231f20"/><path fill="#78a12f" d="M13.988 28.516h1.618v1.619h-1.618zM15.61 23.65h1.618v1.617H15.61z"/><path fill="#5987c5" d="M15.601 30.122h1.627v1.618h-1.627z"/><path fill="#78a12f" d="M17.227 36.607h1.616v1.606h-1.616zM15.605 13.326v5.468h1.62v-1.62h1.618v1.62h1.956c7.444 0 13.283-18.377 13.283-18.377S15.605 4.672 15.605 13.326m4.854 3.85h-1.613v-1.617h1.613v1.617zm1.623-1.622h-1.626v-1.616h-1.611v1.62h-1.618v-1.62h1.617V12.32h1.613v1.614h1.625v1.62zm1.617-3.24H22.08v-1.617h1.619v1.618z"/><path fill="#5987c5" d="M15.601 18.799h1.632v1.612h-1.632zM13.991 47.935h1.612v1.608h-1.612zM15.601 15.562h1.627v1.614h-1.627z"/><path fill="#78a12f" d="M13.991 15.56h1.61v1.617h-1.61z"/><path d="M77.975 63.066a1.48 1.48 0 1 1 .433-1.049 1.422 1.422 0 0 1-.433 1.049zm-1.944-1.947a1.23 1.23 0 0 0-.37.9 1.244 1.244 0 0 0 .368.906 1.268 1.268 0 0 0 1.794.006l.006-.006a1.285 1.285 0 0 0 0-1.805 1.266 1.266 0 0 0-1.79-.008zm.87.083a1.235 1.235 0 0 1 .443.058.403.403 0 0 1 .251.411.355.355 0 0 1-.158.32.618.618 0 0 1-.235.079.393.393 0 0 1 .279.159.445.445 0 0 1 .088.252v.119c0 .037.001.078.004.12a.261.261 0 0 0 .014.085l.01.02h-.268l-.004-.016-.004-.019-.006-.051v-.129a.396.396 0 0 0-.153-.371.684.684 0 0 0-.318-.052h-.225v.638h-.286v-1.623zm.309.256a.745.745 0 0 0-.347-.06h-.244v.587h.259a.778.778 0 0 0 .272-.036.292.292 0 0 0 .06-.491z" fill="#231f20"/></svg>