<svg data-name="Layer 1" xmlns="http://www.w3.org/2000/svg" viewBox="0 0 132.842 118.7797"><title>ift_process_tag_vector</title><path d="M4.993 88.546a4.666 4.666 0 0 1 1.916.403l-.185 1.278a3.989 3.989 0 0 0-1.832-.454c-.992 0-1.563.572-1.748 1.765l-.168 1.026h1.58l-.168 1.277H2.79l-1.412 9.414h-1.38l1.396-9.414H.185l.185-1.277h1.227l.151-.908c.37-2.118 1.261-3.11 3.245-3.11z" fill="#231f20"/><path d="M10.467 99.456a4.654 4.654 0 0 1-2.572.857 3.298 3.298 0 0 1-3.261-3.58c0-2.54 1.563-4.354 3.664-4.354 1.732 0 2.707 1.042 2.707 2.974v.858H6.214l-.034.505v.185a1.987 1.987 0 0 0 1.85 2.168 4.456 4.456 0 0 0 2.672-1.143zm-.824-4.304v-.201a1.26 1.26 0 0 0-1.311-1.396 1.87 1.87 0 0 0-1.883 1.598h3.194zM17.86 99.456a4.654 4.654 0 0 1-2.572.857 3.298 3.298 0 0 1-3.261-3.58c0-2.54 1.563-4.354 3.664-4.354 1.732 0 2.707 1.042 2.707 2.974v.858h-4.792l-.033.504v.185a1.987 1.987 0 0 0 1.849 2.169 4.456 4.456 0 0 0 2.673-1.143zm-.824-4.304v-.201a1.26 1.26 0 0 0-1.311-1.396 1.87 1.87 0 0 0-1.883 1.598h3.194zM23.324 100.296c-2.522 0-3.967-1.31-3.967-3.311a4.537 4.537 0 0 1 1.967-3.698 5.354 5.354 0 0 1 3.311-.925h.336l.538-3.698h1.463l-1.715 11.498c-.84.084-1.48.134-1.933.134zm1.412-6.656c-.118 0-.235-.017-.353-.017a3.194 3.194 0 0 0-3.513 3.16 2.18 2.18 0 0 0 2.302 2.303 3.249 3.249 0 0 0 .79-.084zM27.094 100.145l1.11-7.581h1.462l-1.11 7.581h-1.462zm2.168-10.725a.79.79 0 1 1-.807.79.79.79 0 0 1 .808-.79zM31.583 92.564h1.462l-.185 1.21a3.906 3.906 0 0 1 2.69-1.395c1.143 0 1.799.756 1.799 2.084a7.712 7.712 0 0 1-.101 1.16l-.672 4.522h-1.463l.69-4.891a6.176 6.176 0 0 0 .066-.757.787.787 0 0 0-.874-.891 3.287 3.287 0 0 0-2.286 1.53l-.807 5.01H30.44zM38.41 99.153a1.704 1.704 0 0 1 1.379-1.429 2.279 2.279 0 0 1-1.227-2.185c0-1.849 1.244-2.975 3.58-2.975h2.942l-.168 1.16h-1.294a2.187 2.187 0 0 1 .555 1.479 2.826 2.826 0 0 1-1.749 2.656 6.617 6.617 0 0 1-1.563.404c-.672.117-1.025.268-1.025.571 0 .588.84.572 2.117.992 1.329.42 2.001.924 2.001 1.95 0 1.227-1.143 2.185-3.177 2.185-2.068 0-3.228-.857-3.228-1.883 0-.773.723-1.395 2.085-1.647-.824-.37-1.228-.706-1.228-1.278zm.522 2.774c0 .555.638.942 1.798.942 1.143 0 1.765-.353 1.765-.908 0-.505-.52-.824-1.597-1.127-1.31.37-1.966.622-1.966 1.093zm2.32-4.942a1.596 1.596 0 0 0 1.496-1.731 1.334 1.334 0 0 0-1.328-1.48 1.563 1.563 0 0 0-1.513 1.714 1.399 1.399 0 0 0 1.345 1.497zM51.827 97.993a.83.83 0 0 0 .941.942 2.572 2.572 0 0 0 1.278-.437v1.328a3.936 3.936 0 0 1-1.715.487 1.941 1.941 0 0 1-2.051-2.05 6.947 6.947 0 0 1 .185-1.362l.672-3.261H49.86l.235-1.076h1.295l.37-1.598h1.496l-.353 1.598h1.496l-.252 1.076H52.65l-.69 3.294a6.024 6.024 0 0 0-.134 1.06zM56.677 88.664h1.446l-.756 5.093a3.943 3.943 0 0 1 2.706-1.378c1.143 0 1.799.74 1.799 2.068a8.098 8.098 0 0 1-.101 1.16l-.672 4.538h-1.463l.622-4.202a12.234 12.234 0 0 0 .168-1.412.805.805 0 0 0-.857-.959c-.69 0-1.48.555-2.42 1.648l-.724 4.925h-1.462zM68.758 99.456a4.654 4.654 0 0 1-2.572.857 3.298 3.298 0 0 1-3.26-3.58c0-2.54 1.562-4.354 3.664-4.354 1.731 0 2.706 1.042 2.706 2.974v.858h-4.791l-.033.504v.185a1.987 1.987 0 0 0 1.849 2.169 4.456 4.456 0 0 0 2.672-1.143zm-.824-4.304v-.201a1.26 1.26 0 0 0-1.31-1.396 1.87 1.87 0 0 0-1.884 1.598h3.194zM75.72 92.564h1.462l-.168 1.059a3.636 3.636 0 0 1 2.522-1.244A1.655 1.655 0 0 1 81.3 93.84a4.18 4.18 0 0 1 2.84-1.462c1.144 0 1.782.706 1.782 2.034a8.343 8.343 0 0 1-.117 1.193l-.673 4.54h-1.462l.722-4.91a4.906 4.906 0 0 0 .068-.756.787.787 0 0 0-.874-.891 3.287 3.287 0 0 0-2.287 1.53l-.739 5.026h-1.446l.723-4.908a4.906 4.906 0 0 0 .067-.757.787.787 0 0 0-.874-.89 3.287 3.287 0 0 0-2.286 1.53l-.706 5.026h-1.463zM86.942 100.145l1.11-7.581h1.463l-1.11 7.581h-1.463zm2.169-10.725a.79.79 0 1 1-.807.79.789.789 0 0 1 .807-.79zM91.43 92.564h1.464l-.186 1.21a3.908 3.908 0 0 1 2.69-1.395c1.143 0 1.8.756 1.8 2.084a7.746 7.746 0 0 1-.102 1.16l-.672 4.522H94.96l.689-4.892a6.119 6.119 0 0 0 .067-.756.787.787 0 0 0-.874-.891 3.285 3.285 0 0 0-2.286 1.53l-.807 5.01h-1.462zM102.163 100.296c-2.521 0-3.967-1.31-3.967-3.311a4.537 4.537 0 0 1 1.967-3.698 5.354 5.354 0 0 1 3.312-.925h.336l.538-3.698h1.462l-1.714 11.498c-.84.084-1.48.134-1.934.134zm1.413-6.656c-.118 0-.235-.017-.353-.017a3.195 3.195 0 0 0-3.514 3.16 2.18 2.18 0 0 0 2.303 2.303 3.252 3.252 0 0 0 .79-.084zM106.055 97.842a4.007 4.007 0 0 0 2.303 1.143.896.896 0 0 0 1.025-.773c0-.538-.538-.908-1.378-1.496-1.026-.723-1.648-1.193-1.648-2.253a2.133 2.133 0 0 1 2.421-2.068 3.929 3.929 0 0 1 2.404.79l-.118 1.53a3.976 3.976 0 0 0-2.353-1.025.758.758 0 0 0-.891.673c0 .588.706.874 1.799 1.697a2.452 2.452 0 0 1 1.26 2.068 2.238 2.238 0 0 1-2.47 2.168 4.354 4.354 0 0 1-2.708-1.042zM16.732 113.518a.83.83 0 0 0 .941.942 2.575 2.575 0 0 0 1.278-.438v1.329a3.94 3.94 0 0 1-1.715.487 1.941 1.941 0 0 1-2.05-2.051 6.947 6.947 0 0 1 .184-1.361l.672-3.261h-1.277l.235-1.076h1.295l.37-1.598h1.496l-.353 1.598h1.496l-.252 1.076h-1.496l-.69 3.294a6.028 6.028 0 0 0-.134 1.06zM21.582 104.188h1.446l-.756 5.094a3.943 3.943 0 0 1 2.706-1.378c1.143 0 1.799.739 1.799 2.067a8.123 8.123 0 0 1-.101 1.16l-.673 4.539h-1.462l.622-4.203a12.266 12.266 0 0 0 .168-1.412.806.806 0 0 0-.857-.958c-.69 0-1.48.555-2.42 1.647l-.724 4.926h-1.462zM32.231 115.67l.135-.942a2.476 2.476 0 0 1-2.001 1.093 2.76 2.76 0 0 1-2.572-3.043 4.784 4.784 0 0 1 .975-2.874 4.686 4.686 0 0 1 4.236-1.815h1.765l-1.11 7.58h-1.428zm.925-6.338a2.96 2.96 0 0 0-.387-.016 3.223 3.223 0 0 0-3.412 3.311c0 1.21.605 1.984 1.462 1.984a2.15 2.15 0 0 0 1.765-1.278zM37.603 113.518a.83.83 0 0 0 .941.942 2.575 2.575 0 0 0 1.278-.438v1.329a3.939 3.939 0 0 1-1.715.487 1.941 1.941 0 0 1-2.05-2.051 6.95 6.95 0 0 1 .184-1.362l.673-3.26h-1.278l.236-1.077h1.294l.37-1.597h1.496l-.353 1.597h1.496l-.252 1.076h-1.496l-.69 3.295a6.023 6.023 0 0 0-.134 1.06zM49.826 104.07a4.666 4.666 0 0 1 1.916.404l-.185 1.278a3.99 3.99 0 0 0-1.832-.454c-.992 0-1.564.571-1.749 1.765l-.168 1.026h1.58l-.168 1.277h-1.597l-1.412 9.414h-1.378l1.395-9.414h-1.21l.185-1.277h1.227l.151-.908c.37-2.119 1.26-3.11 3.245-3.11z" fill="#231f20"/><path d="M55.3 114.98a4.654 4.654 0 0 1-2.572.858 3.298 3.298 0 0 1-3.261-3.58c0-2.54 1.563-4.354 3.664-4.354 1.732 0 2.707 1.042 2.707 2.975v.857h-4.792l-.033.504v.186a1.987 1.987 0 0 0 1.85 2.168 4.456 4.456 0 0 0 2.672-1.143zm-.824-4.303v-.201a1.26 1.26 0 0 0-1.311-1.395 1.87 1.87 0 0 0-1.883 1.597h3.194zM62.692 114.98a4.654 4.654 0 0 1-2.572.858 3.298 3.298 0 0 1-3.261-3.58c0-2.54 1.563-4.354 3.665-4.354 1.731 0 2.706 1.042 2.706 2.975v.857h-4.79l-.035.504v.186a1.987 1.987 0 0 0 1.85 2.168 4.455 4.455 0 0 0 2.672-1.143zm-.824-4.303v-.201a1.26 1.26 0 0 0-1.31-1.395 1.87 1.87 0 0 0-1.884 1.597h3.195zM68.157 115.821c-2.522 0-3.968-1.311-3.968-3.312a4.539 4.539 0 0 1 1.967-3.698 5.357 5.357 0 0 1 3.312-.924h.336l.538-3.699h1.462l-1.714 11.499c-.84.084-1.48.134-1.933.134zm1.412-6.657c-.118 0-.236-.016-.353-.016a3.195 3.195 0 0 0-3.513 3.16 2.18 2.18 0 0 0 2.302 2.302 3.25 3.25 0 0 0 .79-.084zM78.094 113.518a.83.83 0 0 0 .94.942 2.575 2.575 0 0 0 1.278-.438v1.329a3.94 3.94 0 0 1-1.714.487 1.941 1.941 0 0 1-2.051-2.051 6.928 6.928 0 0 1 .185-1.362l.672-3.26h-1.278l.236-1.077h1.294l.37-1.597h1.496l-.352 1.598h1.496l-.252 1.076h-1.496l-.69 3.294a6.024 6.024 0 0 0-.134 1.06zM82.944 104.188h1.446l-.757 5.094a3.944 3.944 0 0 1 2.707-1.378c1.143 0 1.798.739 1.798 2.067a8.136 8.136 0 0 1-.1 1.16l-.673 4.539h-1.463l.622-4.203a12.234 12.234 0 0 0 .168-1.412.806.806 0 0 0-.857-.958c-.689 0-1.479.555-2.42 1.647l-.723 4.926h-1.463zM95.025 114.98a4.652 4.652 0 0 1-2.572.858 3.298 3.298 0 0 1-3.261-3.58c0-2.54 1.563-4.354 3.665-4.354 1.73 0 2.706 1.042 2.706 2.975v.857h-4.791l-.034.504v.186a1.987 1.987 0 0 0 1.85 2.168 4.457 4.457 0 0 0 2.672-1.143zm-.824-4.303v-.201a1.26 1.26 0 0 0-1.311-1.395 1.87 1.87 0 0 0-1.883 1.597h3.194zM100.843 115.67l-1.58-7.581h1.429l.924 4.706 2.471-4.706h.707l1.008 4.706 2.404-4.706h1.446l-3.95 7.58h-.622l-1.06-4.823-2.472 4.824h-.706zM113.05 107.92c1.866 0 3.01 1.295 3.01 3.396 0 2.622-1.615 4.505-3.75 4.505-1.765 0-2.89-1.244-2.89-3.379 0-2.622 1.73-4.522 3.63-4.522zm-2.084 4.64c0 1.328.571 2.084 1.412 2.084 1.193 0 2.151-1.328 2.151-3.48 0-1.31-.537-2.034-1.429-2.034-1.109 0-2.134 1.48-2.134 3.43zM116.849 115.67l1.127-7.581h1.411l-.201 1.428c.672-1.042 1.193-1.546 1.983-1.546a1.81 1.81 0 0 1 .639.134l-.37 1.362a1.925 1.925 0 0 0-.42-.05c-.874 0-1.513.639-2.118 1.966l-.64 4.287h-1.411zM125.089 104.188l-1.732 11.482h-1.496l1.732-11.482h1.496zM129.194 115.821c-2.522 0-3.968-1.311-3.968-3.312a4.538 4.538 0 0 1 1.967-3.698 5.359 5.359 0 0 1 3.312-.924h.336l.538-3.699h1.463l-1.715 11.499c-.84.084-1.48.134-1.933.134zm1.412-6.657c-.118 0-.235-.016-.353-.016a3.195 3.195 0 0 0-3.514 3.16 2.18 2.18 0 0 0 2.304 2.302 3.25 3.25 0 0 0 .79-.084z" fill="#231f20"/><path d="M33.608 17.676C33.56 10.039 16.055 5.859 16.055 5.859s4.185 17.527 12.01 17.527h1.399v-2.058h2.061v2.058h2.07c.013-.023.047 0 .013-5.71m-8.26-2.532h-2.06v-2.06h2.06v2.06zm.004 2.069h2.06v2.05h-2.06v-2.05zm4.116 4.112h-2.06v-2.06h2.06v2.06zm2.064-2.061H29.46V17.21h-2.05v-2.07h2.05v2.07h2.073v2.053z" fill="#5987c5"/><path d="M28.726 73.903v-42.16s.515-6.222-4.708-6.222l.002-.005h-9.666V80.22h17.582v-.243c-1.618-.744-3.21-2.401-3.21-6.074M45.85 25.516v.007c-5.676 0-4.874 6.61-4.874 6.61v42.162c0 3.472-1.633 5.012-3.272 5.68v.244h17.775V58.946h23.985v-10.33H55.479V35.924l36.362.062V80.22l15.125.009.049-44.3 18.422.034V25.516H45.85z" fill="#231f20"/><path fill="#78a12f" d="M31.528 35.759h2.059v2.061h-2.059zM33.593 29.566h2.058v2.058h-2.058z"/><path fill="#5987c5" d="M33.581 37.802h2.07v2.058h-2.07z"/><path fill="#78a12f" d="M35.65 46.054h2.056v2.044H35.65zM33.587 16.428v6.958h2.061v-2.061h2.059v2.06h2.489C49.669 23.386 57.1 0 57.1 0S33.587 5.415 33.587 16.428m6.176 4.9H37.71V19.27h2.053v2.058zm2.066-2.065h-2.07v-2.056h-2.05v2.061h-2.06v-2.062h2.06v-2.058h2.052v2.053h2.067v2.062zm2.057-4.122h-2.06v-2.059h2.06v2.059z"/><path fill="#5987c5" d="M33.581 23.392h2.077v2.051h-2.077zM31.532 60.471h2.051v2.046h-2.051zM33.581 19.273h2.071v2.054h-2.071z"/><path fill="#78a12f" d="M31.532 19.27h2.049v2.058h-2.049z"/><path d="M112.956 79.725a1.883 1.883 0 1 1 .551-1.334 1.81 1.81 0 0 1-.55 1.334zm-2.474-2.477a1.566 1.566 0 0 0-.472 1.145 1.583 1.583 0 0 0 .47 1.153 1.614 1.614 0 0 0 2.29 0 1.636 1.636 0 0 0 0-2.298 1.611 1.611 0 0 0-2.288 0zm1.106.105a1.571 1.571 0 0 1 .564.074.512.512 0 0 1 .32.523.452.452 0 0 1-.201.408.786.786 0 0 1-.299.1.5.5 0 0 1 .354.203.566.566 0 0 1 .113.32v.15c0 .048.001.1.005.154a.333.333 0 0 0 .018.107l.012.026h-.34l-.005-.02-.005-.023-.008-.067v-.163a.504.504 0 0 0-.195-.473.87.87 0 0 0-.405-.066h-.286v.812h-.364v-2.065h.723zm.393.325a.948.948 0 0 0-.44-.076h-.311v.747h.329a.99.99 0 0 0 .347-.046.372.372 0 0 0 .075-.624z" fill="#231f20"/></svg>