<svg data-name="Layer 1" xmlns="http://www.w3.org/2000/svg" viewBox="0 0 195.9333 87.0007"><title>logo-dark</title><path fill="#333" d="M126.306 27.613v11.362h9.051v47.96h12.947V27.613h-21.998zM15.59 80.13V34.417s.528-6.738-5.087-6.738H0v59.322h19.091v-.264c-1.783-.86-3.5-2.643-3.5-6.606M34.153 27.68c-6.144 0-5.285 7.2-5.285 7.2v45.713c0 3.765-1.783 5.417-3.567 6.143v.265H44.59V63.88h26.028V52.65H44.59V38.91h39.438v47.959h16.383l.066-47.894h19.95V27.68H34.153zM106.885 86.406a2.048 2.048 0 0 1-3.502-1.453 2.05 2.05 0 0 1 .595-1.453 2.055 2.055 0 0 1 2.907 2.906zm-2.643-2.642a1.691 1.691 0 0 0-.528 1.255 1.805 1.805 0 0 0 .528 1.255 1.691 1.691 0 0 0 1.255.528 1.775 1.775 0 0 0 1.255-3.038 1.755 1.755 0 0 0-2.51 0zm1.19.066a1.466 1.466 0 0 1 .594.066.492.492 0 0 1 .33.595.6.6 0 0 1-.198.462 1.695 1.695 0 0 1-.33.132.565.565 0 0 1 .396.198 1.116 1.116 0 0 1 .132.33v.463h-.396v-.264a.57.57 0 0 0-.198-.529.73.73 0 0 0-.463-.066h-.33v.859h-.396V83.83h.859zm.396.396a.85.85 0 0 0-.463-.066h-.33v.793h.33a.715.715 0 0 0 .397-.066.363.363 0 0 0 .198-.33.224.224 0 0 0-.132-.33zM19.686 65.597H21.8v2.114h-2.114zM17.638 38.909h2.114v2.114h-2.114zM19.752 32.039h2.114v2.114h-2.114zM19.686 41.023H21.8v2.114h-2.114zM23.848 50.007h2.114v2.114h-2.114zM21.8 25.367h2.114v2.114H21.8zM20.875 17.638l.066.99C19.62 10.505 1.85 6.343 1.85 6.343S6.408 25.3 14.864 25.3h2.774v-2.114h2.048v2.114h2.18v-2.114h2.048v2.114h4.03C38.38 25.3 46.374 0 46.374 0c-1.321.396-23.715 5.549-25.367 16.581m2.907.33h2.114v2.18h-2.114v-2.18zm-10.57-.066H11.23V14.73h2.114v2.114zm.066 2.18h2.114v2.048H13.41v-2.048zm2.114 4.162v-2.048h2.114v-2.048H15.59v-2.18h2.114v2.114h2.114v2.114H17.77v2.114h-2.246v-.066zm10.503 0h-2.113v-2.048h-2.048v2.048h-2.18v-2.048h2.18v-2.048h2.114v2.048h2.048v2.048zm2.114-2.048h-2.113v-2.114h2.114v2.114zm2.048-4.228h-2.114v-2.114h2.114v2.114zM195.933 37.06c-.858 1.85-19.29 43.27-22.064 49.875H160.79c2.576-5.813 20.545-46.572 21.14-47.96h-28.87V27.614h42.807v9.447h.066z"/></svg>