<svg xmlns="http://www.w3.org/2000/svg" width="300" height="135" viewBox="0 0 300 135"><path fill="#FFF" d="M193.1 43.8V61h13.7v72.6h19.6V43.8zM25.5 123.3V54.1s.8-10.2-7.7-10.2H1.9v89.8h28.9v-.4c-2.7-1.3-5.3-4-5.3-10M53.6 43.9c-9.3 0-8 10.9-8 10.9V124c0 5.7-2.7 8.2-5.4 9.3v.4h29.2v-35h39.4v-17H69.4V60.9h59.7v72.6h24.8L154 61h30.2V43.9H53.6zM163.7 132.8c-.6.6-1.3.9-2.2.9-.9 0-1.6-.3-2.2-.9-.6-.6-.9-1.3-.9-2.2 0-.8.3-1.6.9-2.2.6-.6 1.3-.9 2.2-.9.9 0 1.6.3 2.2.9.6.6.9 1.3.9 2.2 0 .9-.3 1.6-.9 2.2zm-4-4c-.5.5-.8 1.1-.8 1.9 0 .7.3 1.4.8 1.9s1.1.8 1.9.8a2.732 2.732 0 0 0 2.7-2.7c0-.7-.3-1.4-.8-1.9s-1.1-.8-1.9-.8c-.8 0-1.4.3-1.9.8zm1.8.1c.4 0 .7 0 .9.1.4.1.5.4.5.9 0 .3-.1.5-.3.7-.1.1-.3.1-.5.2.3 0 .5.2.6.3.1.2.2.4.2.5v.7h-.6v-.4c0-.4-.1-.7-.3-.8-.1-.1-.3-.1-.7-.1h-.5v1.3h-.6v-3.4h1.3zm.6.6c-.1-.1-.4-.1-.7-.1h-.5v1.2h.5c.3 0 .4 0 .6-.1.2-.1.3-.3.3-.5.1-.3 0-.4-.2-.5z"/><g fill="#FFF"><path d="M31.7 101.3h3.2v3.2h-3.2zM28.6 60.9h3.2v3.2h-3.2zM31.8 50.5H35v3.2h-3.2zM31.7 64.1h3.2v3.2h-3.2zM38 77.7h3.2v3.2H38zM34.9 40.4h3.2v3.2h-3.2zM33.5 28.7l.1 1.5c-2-12.3-28.9-18.6-28.9-18.6s6.9 28.7 19.7 28.7h4.2v-3.2h3.1v3.2H35v-3.2h3.1v3.2h6.1C60 40.3 72.1 2 72.1 2c-2 .6-35.9 8.4-38.4 25.1m4.4.5h3.2v3.3h-3.2v-3.3zm-16-.1h-3.2v-3.2h3.2v3.2zm.1 3.3h3.2v3.1h-3.2v-3.1zm3.2 6.3V34h3.2v-3.1h-3.1v-3.3h3.2v3.2h3.2V34h-3.1v3.2h-3.4zm15.9 0h-3.2V34H35v3.1h-3.3V34H35v-3.1h3.2V34h3.1v3.1zm3.2-3.1h-3.2v-3.2h3.2V34zm3.1-6.4h-3.2v-3.2h3.2v3.2z"/></g><path fill="#FFF" d="M298.5 58.1c-1.3 2.8-29.2 65.5-33.4 75.5h-19.8c3.9-8.8 31.1-70.5 32-72.6h-43.7V43.8h64.8v14.3z"/></svg>